#N canvas 351 52 846 713 10;
#X obj 287 453 vline~;
#X msg 287 426 \$1 \$2 \, \$4 \$3 \$2;
#X obj 447 307 / 100;
#X msg 129 393 0 \$1;
#X text 164 374 release-time;
#X obj 255 134 sel 0;
#X obj 447 224 f \$3;
#X obj 128 371 f \$4;
#X obj 447 117 loadbang;
#X obj 287 602 outlet~;
#X obj 300 499 max 0.1;
#X obj 300 477 r \$0-curve;
#X obj 318 344 r \$0-a;
#X obj 350 366 r \$0-d;
#X obj 471 258 r \$0-s;
#X obj 166 350 r \$0-r;
#X obj 256 98 inlet;
#X obj 677 94 inlet;
#N canvas 0 50 450 300 send 0;
#X obj 223 66 inlet;
#X obj 223 88 route a d s r curve;
#X obj 222 125 s \$0-a;
#X obj 241 152 s \$0-d;
#X obj 268 175 s \$0-s;
#X obj 290 198 s \$0-r;
#X obj 315 223 s \$0-curve;
#X connect 0 0 1 0;
#X connect 1 0 2 0;
#X connect 1 1 3 0;
#X connect 1 2 4 0;
#X connect 1 3 5 0;
#X connect 1 4 6 0;
#X restore 677 116 pd send;
#X obj 540 165 f \$5;
#X obj 540 187 sel 0;
#X msg 540 209 2;
#X obj 286 521 pow~;
#X obj 286 574 *~ 1;
#X obj 552 258 r \$0-curve;
#X obj 552 231 s \$0-curve;
#X obj 447 139 t b b;
#X obj 552 280 t b f;
#X obj 447 327 expr pow($f1 \, 1/$f2);
#X text 473 348 sustain-normalization for pow~;
#X obj 287 394 pack 1 \$1 \$2 f;
#X obj 287 259 trigger bang float;
#X connect 0 0 22 0;
#X connect 1 0 0 0;
#X connect 2 0 28 0;
#X connect 3 0 0 0;
#X connect 5 0 7 0;
#X connect 5 1 31 0;
#X connect 6 0 2 0;
#X connect 7 0 3 0;
#X connect 8 0 26 0;
#X connect 10 0 22 1;
#X connect 11 0 10 0;
#X connect 12 0 30 1;
#X connect 13 0 30 2;
#X connect 14 0 2 0;
#X connect 15 0 7 1;
#X connect 16 0 5 0;
#X connect 17 0 18 0;
#X connect 19 0 20 0;
#X connect 20 0 21 0;
#X connect 20 1 25 0;
#X connect 21 0 25 0;
#X connect 22 0 23 0;
#X connect 23 0 9 0;
#X connect 24 0 27 0;
#X connect 26 0 6 0;
#X connect 26 1 19 0;
#X connect 27 0 2 0;
#X connect 27 1 28 1;
#X connect 28 0 30 3;
#X connect 30 0 1 0;
#X connect 31 0 30 0;
#X connect 31 1 23 1;
