#N canvas 500 223 609 713 10;
#N canvas 765 79 661 982 hann 0;
#X obj -675 446 until;
#X obj -675 467 f;
#X obj -648 473 + 1;
#X msg -610 442 0;
#X obj -623 317 t b b;
#X obj -674 494 t f f;
#X obj -678 611 expr -cos($f1*3.14159)*.5+.5;
#X obj -498 636 expr -cos($f1*3.14159)*.5+.5;
#X obj -497 660 * -1;
#X obj -496 682 + 1;
#X obj -596 533 moses;
#X obj -608 724 pow 1;
#X obj -332 232 exp;
#X obj -675 405 expr size("$s1");
#X obj -571 770 tabwrite \$1;
#X obj -332 120 inlet shape;
#X obj -332 140 / 100;
#X obj -486 120 inlet x;
#X obj -676 580 /;
#X obj -675 380 symbol \$1;
#X obj -498 607 expr ($f1-$f2)/(size("$s3")-$f2-1);
#X obj -297 584 symbol \$1;
#X obj -278 559 loadbang;
#X obj -487 247 t b f b;
#X obj -333 255 t b f b;
#X connect 0 0 1 0;
#X connect 1 0 2 0;
#X connect 1 0 5 0;
#X connect 2 0 1 1;
#X connect 3 0 1 1;
#X connect 4 0 19 0;
#X connect 4 1 3 0;
#X connect 5 0 10 0;
#X connect 5 1 14 1;
#X connect 6 0 11 0;
#X connect 7 0 8 0;
#X connect 8 0 9 0;
#X connect 9 0 11 0;
#X connect 10 0 18 0;
#X connect 10 1 20 0;
#X connect 11 0 14 0;
#X connect 12 0 24 0;
#X connect 13 0 0 0;
#X connect 15 0 16 0;
#X connect 16 0 12 0;
#X connect 17 0 23 0;
#X connect 18 0 6 0;
#X connect 19 0 13 0;
#X connect 20 0 7 0;
#X connect 21 0 20 2;
#X connect 22 0 21 0;
#X connect 23 0 4 0;
#X connect 23 1 10 1;
#X connect 23 1 18 1;
#X connect 23 1 20 1;
#X connect 23 2 21 0;
#X connect 24 0 4 0;
#X connect 24 1 11 1;
#X connect 24 2 21 0;
#X restore 139 476 pd hann;
#N canvas 702 0 631 726 trapez 0;
#X obj -91 383 until;
#X obj -91 404 f;
#X obj -64 410 + 1;
#X msg 27 353 0;
#X obj -14 540 / 1027;
#X obj -14 489 moses;
#X obj 0 289 t b b;
#X obj -15 448 t f f;
#X obj -16 617 clip 0 1;
#X obj -14 592 *;
#X obj 104 21 inlet x;
#X obj -88 354 expr size("$s1");
#X obj 14 649 tabwrite \$1;
#X obj 301 20 inlet shape;
#X obj 302 125 / 100;
#X obj -87 330 symbol \$1;
#X obj 302 157 + 1;
#X obj 301 182 max 1;
#X obj 308 487 symbol \$1;
#X obj 326 464 loadbang;
#X obj 79 514 expr -($f1-$f2)/(size("$s3")-$f2-1)+1;
#X obj 104 173 t b f f f b;
#X obj 301 204 t b f b;
#X connect 0 0 1 0;
#X connect 1 0 2 0;
#X connect 1 0 7 0;
#X connect 2 0 1 1;
#X connect 3 0 1 1;
#X connect 4 0 9 0;
#X connect 5 0 4 0;
#X connect 5 1 20 0;
#X connect 6 0 15 0;
#X connect 6 1 3 0;
#X connect 7 0 5 0;
#X connect 7 1 12 1;
#X connect 8 0 12 0;
#X connect 9 0 8 0;
#X connect 10 0 21 0;
#X connect 11 0 0 0;
#X connect 13 0 14 0;
#X connect 14 0 16 0;
#X connect 15 0 11 0;
#X connect 16 0 17 0;
#X connect 17 0 22 0;
#X connect 18 0 20 2;
#X connect 19 0 18 0;
#X connect 20 0 9 0;
#X connect 21 0 6 0;
#X connect 21 1 5 1;
#X connect 21 2 4 1;
#X connect 21 3 20 1;
#X connect 21 4 18 0;
#X connect 22 0 6 0;
#X connect 22 1 9 1;
#X connect 22 2 18 0;
#X restore 343 474 pd trapez;
#X obj 5 197 s \$0-sel-window;
#X obj 282 87 inlet x;
#X obj 454 88 inlet shape;
#X obj 309 351 f;
#X obj 207 351 f;
#X obj 177 87 r \$0-sel-window;
#X obj 176 401 route 0 1 2 3;
#X obj 286 401 route 0 1 2 3;
#X obj 176 375 pack;
#X obj 288 376 pack;
#X obj 176 200 t f b f b;
#X obj 290 220 expr size("$s1");
#X obj 290 242 / 2;
#X obj 290 265 i;
#X obj 5 90 inlet select;
#X obj 177 175 f;
#X obj 282 117 t b f;
#X obj 453 114 t b f;
#X obj 5 119 max 0;
#X obj 5 144 min 3;
#X obj 298 198 symbol \$1;
#X obj 298 178 loadbang;
#N canvas 633 85 680 875 curved2 0;
#X obj -1306 445 until;
#X obj -1306 466 f;
#X obj -1279 472 + 1;
#X msg -1231 442 0;
#X obj -1257 358 t b b;
#X obj -1307 502 t f f;
#X obj -1317 616 expr if($f2<=0 \, -pow((1-$f1) \, (-$f2+1))+1 \, pow($f1
\, $f2+1));
#X obj -1243 661 expr if($f2<=0 \, -pow((1-$f1) \, (-$f2+1))+1 \, pow($f1
\, $f2+1));
#X obj -1242 684 * -1;
#X obj -1241 706 + 1;
#X obj -1307 539 moses;
#X obj -794 201 exp;
#X obj -892 116 moses 0;
#X obj -892 198 * -1;
#X obj -891 239 exp;
#X obj -890 260 * -1;
#X obj -892 153 + 1;
#X obj -892 176 moses -1;
#X obj -891 220 - 1;
#X obj -891 92 - 1;
#X obj -1306 416 expr size("$s1");
#X obj -1307 581 /;
#X obj -1068 51 inlet x;
#X obj -891 48 inlet shape;
#X obj -891 68 / 100;
#X obj -1229 762 tabwrite \$1;
#X obj -1305 394 symbol \$1;
#X obj -1005 547 symbol \$1;
#X obj -984 522 loadbang;
#X obj -1181 576 expr ($f1-$f2)/(size("$s3")-$f2-1);
#X obj -877 295 t b b f f;
#X obj -892 638 * -1;
#X obj -1068 241 t b f f f b;
#X connect 0 0 1 0;
#X connect 1 0 2 0;
#X connect 1 0 5 0;
#X connect 2 0 1 1;
#X connect 3 0 1 1;
#X connect 4 0 26 0;
#X connect 4 1 3 0;
#X connect 5 0 10 0;
#X connect 5 1 25 1;
#X connect 6 0 25 0;
#X connect 7 0 8 0;
#X connect 8 0 9 0;
#X connect 9 0 25 0;
#X connect 10 0 21 0;
#X connect 10 1 29 0;
#X connect 11 0 30 0;
#X connect 12 0 16 0;
#X connect 12 1 11 0;
#X connect 13 0 18 0;
#X connect 14 0 15 0;
#X connect 15 0 30 0;
#X connect 16 0 17 0;
#X connect 17 0 13 0;
#X connect 17 1 30 0;
#X connect 18 0 14 0;
#X connect 19 0 12 0;
#X connect 20 0 0 0;
#X connect 21 0 6 0;
#X connect 22 0 32 0;
#X connect 23 0 24 0;
#X connect 24 0 19 0;
#X connect 26 0 20 0;
#X connect 27 0 29 2;
#X connect 28 0 27 0;
#X connect 29 0 7 0;
#X connect 30 0 4 0;
#X connect 30 1 27 0;
#X connect 30 2 6 1;
#X connect 30 3 31 0;
#X connect 31 0 7 1;
#X connect 32 0 4 0;
#X connect 32 1 10 1;
#X connect 32 2 21 1;
#X connect 32 3 29 1;
#X connect 32 4 27 0;
#X restore 271 474 pd curved2;
#N canvas 633 85 680 875 curved 0;
#X obj -1306 445 until;
#X obj -1306 466 f;
#X obj -1279 472 + 1;
#X msg -1231 442 0;
#X obj -1257 358 t b b;
#X obj -1307 502 t f f;
#X obj -1317 616 expr if($f2<=0 \, -pow((1-$f1) \, (-$f2+1))+1 \, pow($f1
\, $f2+1));
#X obj -1243 661 expr if($f2<=0 \, -pow((1-$f1) \, (-$f2+1))+1 \, pow($f1
\, $f2+1));
#X obj -1242 684 * -1;
#X obj -1241 706 + 1;
#X obj -1307 539 moses;
#X obj -794 201 exp;
#X obj -892 116 moses 0;
#X obj -892 198 * -1;
#X obj -891 239 exp;
#X obj -890 260 * -1;
#X obj -892 153 + 1;
#X obj -892 176 moses -1;
#X obj -891 220 - 1;
#X obj -891 92 - 1;
#X obj -1306 416 expr size("$s1");
#X obj -1307 581 /;
#X obj -1068 51 inlet x;
#X obj -891 48 inlet shape;
#X obj -891 68 / 100;
#X obj -1229 762 tabwrite \$1;
#X obj -1305 394 symbol \$1;
#X obj -1005 547 symbol \$1;
#X obj -984 522 loadbang;
#X obj -1181 576 expr ($f1-$f2)/(size("$s3")-$f2-1);
#X obj -877 295 t b b f f;
#X obj -1068 241 t b f f f b;
#X connect 0 0 1 0;
#X connect 1 0 2 0;
#X connect 1 0 5 0;
#X connect 2 0 1 1;
#X connect 3 0 1 1;
#X connect 4 0 26 0;
#X connect 4 1 3 0;
#X connect 5 0 10 0;
#X connect 5 1 25 1;
#X connect 6 0 25 0;
#X connect 7 0 8 0;
#X connect 8 0 9 0;
#X connect 9 0 25 0;
#X connect 10 0 21 0;
#X connect 10 1 29 0;
#X connect 11 0 30 0;
#X connect 12 0 16 0;
#X connect 12 1 11 0;
#X connect 13 0 18 0;
#X connect 14 0 15 0;
#X connect 15 0 30 0;
#X connect 16 0 17 0;
#X connect 17 0 13 0;
#X connect 17 1 30 0;
#X connect 18 0 14 0;
#X connect 19 0 12 0;
#X connect 20 0 0 0;
#X connect 21 0 6 0;
#X connect 22 0 31 0;
#X connect 23 0 24 0;
#X connect 24 0 19 0;
#X connect 26 0 20 0;
#X connect 27 0 29 2;
#X connect 28 0 27 0;
#X connect 29 0 7 0;
#X connect 30 0 4 0;
#X connect 30 1 27 0;
#X connect 30 2 6 1;
#X connect 30 3 7 1;
#X connect 31 0 4 0;
#X connect 31 1 10 1;
#X connect 31 2 21 1;
#X connect 31 3 29 1;
#X connect 31 4 27 0;
#X restore 200 474 pd curved;
#X connect 3 0 18 0;
#X connect 4 0 19 0;
#X connect 5 0 11 1;
#X connect 6 0 10 1;
#X connect 7 0 17 0;
#X connect 8 0 0 0;
#X connect 8 1 25 0;
#X connect 8 2 24 0;
#X connect 8 3 1 0;
#X connect 9 0 0 1;
#X connect 9 1 25 1;
#X connect 9 2 24 1;
#X connect 9 3 1 1;
#X connect 10 0 8 0;
#X connect 11 0 9 0;
#X connect 12 0 10 0;
#X connect 12 1 6 0;
#X connect 12 2 11 0;
#X connect 12 3 5 0;
#X connect 13 0 14 0;
#X connect 14 0 15 0;
#X connect 15 0 6 1;
#X connect 16 0 20 0;
#X connect 17 0 12 0;
#X connect 18 0 17 0;
#X connect 18 1 6 0;
#X connect 19 0 17 0;
#X connect 19 1 5 0;
#X connect 20 0 21 0;
#X connect 21 0 2 0;
#X connect 22 0 13 0;
#X connect 23 0 22 0;
