#N canvas 500 189 450 522 10;
#N canvas 0 50 450 300 listget 0;
#X obj 153 146 list split;
#X obj 210 193 list length;
#X obj 153 170 t l l;
#X obj 153 237 list split;
#X obj 210 216 - 1;
#X obj 151 116 list;
#X obj 319 37 inlet list;
#X obj 181 266 outlet element;
#X obj 143 24 inlet n;
#X obj 152 54 t b f;
#X obj 220 121 max 1;
#X connect 0 0 2 0;
#X connect 1 0 4 0;
#X connect 2 0 3 0;
#X connect 2 1 1 0;
#X connect 3 1 7 0;
#X connect 4 0 3 1;
#X connect 5 0 0 0;
#X connect 6 0 5 1;
#X connect 8 0 9 0;
#X connect 9 0 5 0;
#X connect 9 1 10 0;
#X connect 10 0 0 1;
#X restore 163 237 pd listget;
#X obj 155 67 list fromsymbol;
#X obj 155 89 trigger list list bang;
#X obj 155 111 list length;
#X obj 155 167 until;
#X obj 155 189 f;
#X obj 187 201 - 1;
#X obj 163 259 t f f;
#X obj 155 134 t f f;
#X obj 215 303 t l;
#X obj 246 348 list;
#X obj 319 287 sel;
#X obj 319 309 t b b;
#X obj 246 370 list tosymbol;
#X obj 337 221 loadbang;
#X obj 337 243 symbol /;
#X obj 337 265 list fromsymbol;
#X obj 155 45 inlet symbol path;
#X obj 246 392 outlet symbol filename;
#X obj 163 294 list;
#X connect 0 0 7 0;
#X connect 1 0 2 0;
#X connect 2 0 3 0;
#X connect 2 1 0 1;
#X connect 2 2 19 1;
#X connect 3 0 8 0;
#X connect 4 0 5 0;
#X connect 5 0 6 0;
#X connect 5 0 0 0;
#X connect 6 0 5 1;
#X connect 7 0 19 0;
#X connect 7 1 11 0;
#X connect 8 0 4 0;
#X connect 8 1 5 1;
#X connect 9 0 19 1;
#X connect 10 0 13 0;
#X connect 11 0 12 0;
#X connect 12 0 10 0;
#X connect 12 1 4 1;
#X connect 13 0 18 0;
#X connect 14 0 15 0;
#X connect 15 0 16 0;
#X connect 16 0 11 1;
#X connect 17 0 1 0;
#X connect 19 0 9 0;
#X connect 19 0 10 1;
