#N canvas 475 169 499 596 10;
#N canvas 95 66 1097 699 create 0;
#X obj 217 237 f;
#X obj 245 239 + 1;
#X obj 135 391 mod;
#X obj 268 547 + 1;
#X msg 317 215 0;
#X obj 240 548 + 1;
#X msg 455 642 clear;
#X obj 207 659 s pd-\$0-spielfeld;
#X obj 217 194 metro 1;
#X obj 460 292 sel;
#X obj 477 269 - 1;
#X msg 460 312 0;
#X msg 227 -61 1;
#X obj 785 485 s pd-\$0-spielfeld;
#X obj 476 385 s \$0-cell-loadbang;
#X obj 430 338 del 10;
#X obj 136 494 * 10;
#X obj 227 -85 loadbang;
#X obj 712 563 s \$0-gol;
#X obj 712 514 pack;
#X obj 470 52 t b;
#X obj 469 73 f 10;
#X obj 707 476 + 6;
#X obj 470 13 f \$1;
#X obj 467 99 s \$0-size-x;
#X obj 549 100 s \$0-size-y;
#X obj 477 205 r \$0-size-x;
#X obj 509 240 r \$0-size-y;
#X obj 477 242 *;
#X obj 752 283 r \$0-size-x;
#X obj 769 317 r \$0-size-y;
#X obj 724 365 pack;
#X obj 724 333 * 10;
#X obj 769 342 * 10;
#X obj 724 310 f;
#X obj 723 391 t l l;
#X obj 707 454 unpack;
#X msg 785 461 donecanvasdialog 1 1 2 0 -1 1 1 \$1 \$2 0 0;
#X obj 167 391 r \$0-size-x;
#X obj 135 423 t f f f;
#X obj 228 454 sel 0;
#X obj 227 476 f;
#X obj 255 478 + 1;
#X obj 197 532 * 10;
#X obj 227 499 t f f;
#X obj 470 33 sel 0;
#X obj 552 47 t b;
#X obj 551 68 f 10;
#X obj 552 28 sel 0;
#X obj 552 8 f \$2;
#X obj 313 569 r \$0-size-x;
#X obj 351 593 r \$0-size-y;
#X msg 207 620 obj \$1 \$2 pp.gol-cell \$3 \$4 \$5 \$6 \$7;
#X obj 217 259 t f f;
#X obj 436 387 f \$3;
#X obj 436 409 s \$0-outputmode;
#X obj 429 359 t b b;
#X obj 205 593 pack 0 0 0 0 \$0 0 0;
#X obj 227 -35 t f b b b bang bang;
#X obj 740 476 + 19;
#X msg 712 540 donecanvasdialog 1 1 1 0 -1 1 1 \$1 \$2 200 200 \, dirty
0;
#X connect 0 0 1 0;
#X connect 0 0 53 0;
#X connect 1 0 0 1;
#X connect 2 0 39 0;
#X connect 3 0 57 3;
#X connect 4 0 0 1;
#X connect 4 0 41 1;
#X connect 5 0 57 2;
#X connect 6 0 7 0;
#X connect 8 0 0 0;
#X connect 9 0 11 0;
#X connect 9 0 15 0;
#X connect 10 0 9 1;
#X connect 11 0 8 0;
#X connect 12 0 58 0;
#X connect 15 0 56 0;
#X connect 16 0 57 0;
#X connect 17 0 12 0;
#X connect 19 0 60 0;
#X connect 20 0 21 0;
#X connect 21 0 24 0;
#X connect 22 0 19 0;
#X connect 23 0 45 0;
#X connect 26 0 28 0;
#X connect 27 0 28 1;
#X connect 28 0 10 0;
#X connect 29 0 34 1;
#X connect 30 0 33 0;
#X connect 31 0 35 0;
#X connect 32 0 31 0;
#X connect 33 0 31 1;
#X connect 34 0 32 0;
#X connect 35 0 36 0;
#X connect 35 1 37 0;
#X connect 36 0 22 0;
#X connect 36 1 59 0;
#X connect 37 0 13 0;
#X connect 38 0 2 1;
#X connect 39 0 16 0;
#X connect 39 1 5 0;
#X connect 39 2 40 0;
#X connect 40 0 41 0;
#X connect 41 0 42 0;
#X connect 41 0 44 0;
#X connect 42 0 41 1;
#X connect 43 0 57 1;
#X connect 44 0 43 0;
#X connect 44 1 3 0;
#X connect 45 0 20 0;
#X connect 45 1 24 0;
#X connect 46 0 47 0;
#X connect 47 0 25 0;
#X connect 48 0 46 0;
#X connect 48 1 25 0;
#X connect 49 0 48 0;
#X connect 50 0 57 5;
#X connect 51 0 57 6;
#X connect 52 0 7 0;
#X connect 53 0 2 0;
#X connect 53 1 9 0;
#X connect 54 0 55 0;
#X connect 56 0 54 0;
#X connect 56 1 14 0;
#X connect 57 0 52 0;
#X connect 58 0 8 0;
#X connect 58 1 4 0;
#X connect 58 2 34 0;
#X connect 58 3 6 0;
#X connect 58 4 23 0;
#X connect 58 5 49 0;
#X connect 59 0 19 1;
#X connect 60 0 18 0;
#X restore 119 198 pd create;
#X obj 71 304 r \$0-celldata;
#X obj 137 155 inlet;
#X obj 71 329 outlet;
#X obj 205 155 namecanvas \$0-gol;
#N canvas 495 207 554 431 \$0-spielfeld 0;
#X obj 0 0 pp.gol-cell 1 1 1863 10 10;
#X obj 10 0 pp.gol-cell 2 1 1863 10 10;
#X obj 20 0 pp.gol-cell 3 1 1863 10 10;
#X obj 30 0 pp.gol-cell 4 1 1863 10 10;
#X obj 40 0 pp.gol-cell 5 1 1863 10 10;
#X obj 50 0 pp.gol-cell 6 1 1863 10 10;
#X obj 60 0 pp.gol-cell 7 1 1863 10 10;
#X obj 70 0 pp.gol-cell 8 1 1863 10 10;
#X obj 80 0 pp.gol-cell 9 1 1863 10 10;
#X obj 90 0 pp.gol-cell 10 1 1863 10 10;
#X obj 0 10 pp.gol-cell 1 2 1863 10 10;
#X obj 10 10 pp.gol-cell 2 2 1863 10 10;
#X obj 20 10 pp.gol-cell 3 2 1863 10 10;
#X obj 30 10 pp.gol-cell 4 2 1863 10 10;
#X obj 40 10 pp.gol-cell 5 2 1863 10 10;
#X obj 50 10 pp.gol-cell 6 2 1863 10 10;
#X obj 60 10 pp.gol-cell 7 2 1863 10 10;
#X obj 70 10 pp.gol-cell 8 2 1863 10 10;
#X obj 80 10 pp.gol-cell 9 2 1863 10 10;
#X obj 90 10 pp.gol-cell 10 2 1863 10 10;
#X obj 0 20 pp.gol-cell 1 3 1863 10 10;
#X obj 10 20 pp.gol-cell 2 3 1863 10 10;
#X obj 20 20 pp.gol-cell 3 3 1863 10 10;
#X obj 30 20 pp.gol-cell 4 3 1863 10 10;
#X obj 40 20 pp.gol-cell 5 3 1863 10 10;
#X obj 50 20 pp.gol-cell 6 3 1863 10 10;
#X obj 60 20 pp.gol-cell 7 3 1863 10 10;
#X obj 70 20 pp.gol-cell 8 3 1863 10 10;
#X obj 80 20 pp.gol-cell 9 3 1863 10 10;
#X obj 90 20 pp.gol-cell 10 3 1863 10 10;
#X obj 0 30 pp.gol-cell 1 4 1863 10 10;
#X obj 10 30 pp.gol-cell 2 4 1863 10 10;
#X obj 20 30 pp.gol-cell 3 4 1863 10 10;
#X obj 30 30 pp.gol-cell 4 4 1863 10 10;
#X obj 40 30 pp.gol-cell 5 4 1863 10 10;
#X obj 50 30 pp.gol-cell 6 4 1863 10 10;
#X obj 60 30 pp.gol-cell 7 4 1863 10 10;
#X obj 70 30 pp.gol-cell 8 4 1863 10 10;
#X obj 80 30 pp.gol-cell 9 4 1863 10 10;
#X obj 90 30 pp.gol-cell 10 4 1863 10 10;
#X obj 0 40 pp.gol-cell 1 5 1863 10 10;
#X obj 10 40 pp.gol-cell 2 5 1863 10 10;
#X obj 20 40 pp.gol-cell 3 5 1863 10 10;
#X obj 30 40 pp.gol-cell 4 5 1863 10 10;
#X obj 40 40 pp.gol-cell 5 5 1863 10 10;
#X obj 50 40 pp.gol-cell 6 5 1863 10 10;
#X obj 60 40 pp.gol-cell 7 5 1863 10 10;
#X obj 70 40 pp.gol-cell 8 5 1863 10 10;
#X obj 80 40 pp.gol-cell 9 5 1863 10 10;
#X obj 90 40 pp.gol-cell 10 5 1863 10 10;
#X obj 0 50 pp.gol-cell 1 6 1863 10 10;
#X obj 10 50 pp.gol-cell 2 6 1863 10 10;
#X obj 20 50 pp.gol-cell 3 6 1863 10 10;
#X obj 30 50 pp.gol-cell 4 6 1863 10 10;
#X obj 40 50 pp.gol-cell 5 6 1863 10 10;
#X obj 50 50 pp.gol-cell 6 6 1863 10 10;
#X obj 60 50 pp.gol-cell 7 6 1863 10 10;
#X obj 70 50 pp.gol-cell 8 6 1863 10 10;
#X obj 80 50 pp.gol-cell 9 6 1863 10 10;
#X obj 90 50 pp.gol-cell 10 6 1863 10 10;
#X obj 0 60 pp.gol-cell 1 7 1863 10 10;
#X obj 10 60 pp.gol-cell 2 7 1863 10 10;
#X obj 20 60 pp.gol-cell 3 7 1863 10 10;
#X obj 30 60 pp.gol-cell 4 7 1863 10 10;
#X obj 40 60 pp.gol-cell 5 7 1863 10 10;
#X obj 50 60 pp.gol-cell 6 7 1863 10 10;
#X obj 60 60 pp.gol-cell 7 7 1863 10 10;
#X obj 70 60 pp.gol-cell 8 7 1863 10 10;
#X obj 80 60 pp.gol-cell 9 7 1863 10 10;
#X obj 90 60 pp.gol-cell 10 7 1863 10 10;
#X obj 0 70 pp.gol-cell 1 8 1863 10 10;
#X obj 10 70 pp.gol-cell 2 8 1863 10 10;
#X obj 20 70 pp.gol-cell 3 8 1863 10 10;
#X obj 30 70 pp.gol-cell 4 8 1863 10 10;
#X obj 40 70 pp.gol-cell 5 8 1863 10 10;
#X obj 50 70 pp.gol-cell 6 8 1863 10 10;
#X obj 60 70 pp.gol-cell 7 8 1863 10 10;
#X obj 70 70 pp.gol-cell 8 8 1863 10 10;
#X obj 80 70 pp.gol-cell 9 8 1863 10 10;
#X obj 90 70 pp.gol-cell 10 8 1863 10 10;
#X obj 0 80 pp.gol-cell 1 9 1863 10 10;
#X obj 10 80 pp.gol-cell 2 9 1863 10 10;
#X obj 20 80 pp.gol-cell 3 9 1863 10 10;
#X obj 30 80 pp.gol-cell 4 9 1863 10 10;
#X obj 40 80 pp.gol-cell 5 9 1863 10 10;
#X obj 50 80 pp.gol-cell 6 9 1863 10 10;
#X obj 60 80 pp.gol-cell 7 9 1863 10 10;
#X obj 70 80 pp.gol-cell 8 9 1863 10 10;
#X obj 80 80 pp.gol-cell 9 9 1863 10 10;
#X obj 90 80 pp.gol-cell 10 9 1863 10 10;
#X obj 0 90 pp.gol-cell 1 10 1863 10 10;
#X obj 10 90 pp.gol-cell 2 10 1863 10 10;
#X obj 20 90 pp.gol-cell 3 10 1863 10 10;
#X obj 30 90 pp.gol-cell 4 10 1863 10 10;
#X obj 40 90 pp.gol-cell 5 10 1863 10 10;
#X obj 50 90 pp.gol-cell 6 10 1863 10 10;
#X obj 60 90 pp.gol-cell 7 10 1863 10 10;
#X obj 70 90 pp.gol-cell 8 10 1863 10 10;
#X obj 80 90 pp.gol-cell 9 10 1863 10 10;
#X obj 90 90 pp.gol-cell 10 10 1863 10 10;
#X coords 0 -1 1 1 100 100 2 0 0;
#X restore 203 216 pd \$0-spielfeld;
#N canvas 412 415 1201 586 ins 0;
#X obj 292 44 inlet;
#X obj 169 326 s \$0-dieall;
#X obj 114 348 s \$0-randomize;
#X obj 629 201 s \$0-step;
#X obj 629 180 t b;
#X obj 115 278 t b;
#X obj 169 277 t b;
#X obj 213 274 t b;
#X obj 212 294 s \$0-output;
#X msg 326 464 \; \$2-getrow-\$1 \, bang;
#X obj 327 443 pack 0 \$0;
#X obj 485 407 pack 0 \$0;
#X msg 484 428 \; \$2-getcol-\$1 \, bang;
#X obj 514 274 list \$0;
#X msg 514 298 \; \$1-\$2-cell-\$4 \, \$3;
#X obj 527 363 r \$0-size-x;
#X obj 370 398 r \$0-size-y;
#X obj 281 379 moses 0;
#X obj 327 400 moses;
#X obj 327 422 + 1;
#X obj 439 343 moses 0;
#X obj 485 364 moses;
#X obj 485 386 + 1;
#X obj 514 204 unpack f f f;
#X obj 515 227 + 1;
#X obj 554 228 + 1;
#X obj 515 249 pack 0 0 0;
#N canvas 0 50 450 300 error 0;
#X obj 208 98 inlet;
#X obj 208 121 list;
#X msg 208 144 no method for "\$1";
#X obj 209 170 print pp.gol;
#X connect 0 0 1 0;
#X connect 1 0 2 0;
#X connect 2 0 3 0;
#X restore 761 143 pd error;
#X obj 728 239 s \$0-outputmode;
#X obj 292 89 route randomize clear output getrow getcolumn set bang
outputmode;
#X obj 728 215 != 0;
#X connect 0 0 29 0;
#X connect 4 0 3 0;
#X connect 5 0 2 0;
#X connect 6 0 1 0;
#X connect 7 0 8 0;
#X connect 10 0 9 0;
#X connect 11 0 12 0;
#X connect 13 0 14 0;
#X connect 15 0 21 1;
#X connect 16 0 18 1;
#X connect 17 1 18 0;
#X connect 18 0 19 0;
#X connect 19 0 10 0;
#X connect 20 1 21 0;
#X connect 21 0 22 0;
#X connect 22 0 11 0;
#X connect 23 0 24 0;
#X connect 23 1 25 0;
#X connect 23 2 26 2;
#X connect 24 0 26 0;
#X connect 25 0 26 1;
#X connect 26 0 13 0;
#X connect 29 0 5 0;
#X connect 29 1 6 0;
#X connect 29 2 7 0;
#X connect 29 3 17 0;
#X connect 29 4 20 0;
#X connect 29 5 23 0;
#X connect 29 6 4 0;
#X connect 29 7 30 0;
#X connect 29 8 27 0;
#X connect 30 0 28 0;
#X restore 137 175 pd ins;
#N canvas 377 501 786 389 spezialout 0;
#X obj 224 47 r \$0-rowdata;
#X obj 208 229 list;
#X obj 239 250 t l;
#X obj 170 118 f;
#X obj 200 116 + 1;
#X obj 200 136 mod;
#X obj 170 252 list;
#X obj 242 157 - 1;
#X obj 284 194 sel 0;
#X obj 288 153 f;
#X obj 318 151 + 1;
#X obj 319 173 mod;
#X obj 229 74 t b f b;
#X obj 460 335 outlet;
#X obj 498 221 list;
#X obj 529 242 t l;
#X obj 460 110 f;
#X obj 490 108 + 1;
#X obj 490 128 mod;
#X obj 460 244 list;
#X obj 532 149 - 1;
#X obj 574 186 sel 0;
#X obj 578 145 f;
#X obj 608 143 + 1;
#X obj 609 165 mod;
#X obj 519 66 t b f b;
#X obj 519 46 r \$0-coldata;
#X obj 170 190 sel;
#X obj 460 182 sel;
#X obj 353 94 r \$0-size-x;
#X obj 643 86 r \$0-size-y;
#X connect 0 0 12 0;
#X connect 1 0 2 0;
#X connect 1 0 6 1;
#X connect 2 0 1 1;
#X connect 3 0 4 0;
#X connect 3 0 27 0;
#X connect 4 0 5 0;
#X connect 5 0 3 1;
#X connect 6 0 13 0;
#X connect 7 0 27 1;
#X connect 8 0 1 1;
#X connect 9 0 10 0;
#X connect 9 0 8 0;
#X connect 10 0 11 0;
#X connect 11 0 9 1;
#X connect 12 0 3 0;
#X connect 12 1 1 0;
#X connect 12 2 9 0;
#X connect 14 0 15 0;
#X connect 14 0 19 1;
#X connect 15 0 14 1;
#X connect 16 0 17 0;
#X connect 16 0 28 0;
#X connect 17 0 18 0;
#X connect 18 0 16 1;
#X connect 19 0 13 0;
#X connect 20 0 28 1;
#X connect 21 0 14 1;
#X connect 22 0 23 0;
#X connect 22 0 21 0;
#X connect 23 0 24 0;
#X connect 24 0 22 1;
#X connect 25 0 16 0;
#X connect 25 1 14 0;
#X connect 25 2 22 0;
#X connect 26 0 25 0;
#X connect 27 0 6 0;
#X connect 28 0 19 0;
#X connect 29 0 5 1;
#X connect 29 0 7 0;
#X connect 29 0 11 1;
#X connect 30 0 18 1;
#X connect 30 0 20 0;
#X connect 30 0 24 1;
#X restore 96 256 pd spezialout;
#X obj 96 280 outlet;
#X connect 1 0 3 0;
#X connect 2 0 6 0;
#X connect 7 0 8 0;
#X coords 0 -1 1 1 106 119 1 200 200;
