#N canvas 254 77 1109 688 10;
#X obj 100 100 tgl 10 1 \$0-state \$0-stater empty 17 7 0 10 -66577
-66577 -66577 0 1;
#X obj 44 344 s \$0-stater;
#X obj 823 204 r \$0-state;
#X obj 577 322 f;
#X obj 577 414 s \$0-stater;
#X msg 648 374 0;
#X obj 592 226 expr if($f2==0 \, $f1==3 \, $f1>=2&&$f1<=3);
#X obj 397 158 r \$0-state;
#X obj 504 319 random 2;
#X obj 577 354 change;
#X obj 626 312 r \$0-state;
#X obj 94 252 sel 0 1;
#X msg 44 320 color \$1 \$1 \$1;
#X msg 112 282 0;
#X msg 44 287 2;
#N canvas 91 362 1141 370 \$0-receive 0;
#N canvas 1259 471 450 300 bondo..................................
0;
#X obj 101 52 inlet;
#X obj 101 184 outlet;
#X obj 154 53 inlet;
#X obj 181 182 outlet;
#X obj 154 79 t b f;
#X obj 207 52 inlet;
#X obj 234 181 outlet;
#X obj 207 78 t b f;
#X obj 255 53 inlet;
#X obj 282 182 outlet;
#X obj 255 79 t b f;
#X obj 302 52 inlet;
#X obj 329 181 outlet;
#X obj 302 78 t b f;
#X obj 351 51 inlet;
#X obj 378 180 outlet;
#X obj 351 77 t b f;
#X obj 404 50 inlet;
#X obj 431 179 outlet;
#X obj 404 76 t b f;
#X obj 452 51 inlet;
#X obj 479 180 outlet;
#X obj 452 77 t b f;
#X obj 499 50 inlet;
#X obj 526 179 outlet;
#X obj 499 76 t b f;
#X connect 0 0 1 0;
#X connect 2 0 4 0;
#X connect 4 0 1 0;
#X connect 4 1 3 0;
#X connect 5 0 7 0;
#X connect 7 0 1 0;
#X connect 7 1 6 0;
#X connect 8 0 10 0;
#X connect 10 0 1 0;
#X connect 10 1 9 0;
#X connect 11 0 13 0;
#X connect 13 0 1 0;
#X connect 13 1 12 0;
#X connect 14 0 16 0;
#X connect 16 0 1 0;
#X connect 16 1 15 0;
#X connect 17 0 19 0;
#X connect 19 0 1 0;
#X connect 19 1 18 0;
#X connect 20 0 22 0;
#X connect 22 0 1 0;
#X connect 22 1 21 0;
#X connect 23 0 25 0;
#X connect 25 0 1 0;
#X connect 25 1 24 0;
#X restore 338 201 pd bondo..................................;
#X obj 338 236 expr $f1+$f2+$f3+$f4+$f5*0+$f6+$f7+$f8+$f9;
#X obj 339 258 outlet;
#X connect 0 0 1 0;
#X connect 0 1 1 1;
#X connect 0 2 1 2;
#X connect 0 3 1 3;
#X connect 0 4 1 4;
#X connect 0 5 1 5;
#X connect 0 6 1 6;
#X connect 0 7 1 7;
#X connect 0 8 1 8;
#X connect 1 0 2 0;
#X restore 592 170 pd \$0-receive;
#N canvas 638 52 450 300 \$0-send 0;
#X obj 50 24 inlet;
#X restore 100 141 pd \$0-send;
#N canvas 139 157 1184 608 create 0;
#X obj 374 170 - 1;
#X obj 183 105 until;
#X msg 183 83 9;
#X obj 183 133 f;
#X obj 216 140 + 1;
#X obj 183 325 + 100;
#X obj 357 276 f;
#X obj 391 277 + 1;
#X obj 333 212 mod 3;
#X obj 333 235 sel 0;
#X obj 209 218 f;
#X obj 242 225 + 1;
#X obj 209 246 mod 3;
#X obj 290 168 - 1;
#X obj 244 276 +;
#X obj 290 144 f \$2;
#X obj 374 146 f \$1;
#X obj 183 303 * 100;
#X obj 183 167 t f f b f;
#X obj 55 281 pack;
#X obj 67 229 t f f;
#X obj 186 504 s pd-\$0-receive;
#X obj 55 257 + 3;
#X obj 615 193 s pd-\$0-send;
#X msg 514 170 connect 0 0 1 0;
#N canvas 1089 456 450 398 borders 0;
#X obj 209 -210 inlet;
#X obj 208 -135 sel 0;
#X obj 227 -33 outlet;
#X obj 240 -106 sel;
#X obj 273 -108 + 1;
#X obj 213 -181 t f b;
#X obj 227 -83 f 1;
#X obj 185 -109 f \$5;
#X obj 273 -129 f \$5;
#X connect 0 0 5 0;
#X connect 1 0 7 0;
#X connect 1 1 3 0;
#X connect 3 0 6 0;
#X connect 3 1 2 0;
#X connect 4 0 3 1;
#X connect 5 0 1 0;
#X connect 5 1 8 0;
#X connect 6 0 2 0;
#X connect 7 0 2 0;
#X connect 8 0 4 0;
#X restore 242 322 pd borders;
#N canvas 1089 456 450 398 borders 0;
#X obj 209 -210 inlet;
#X obj 208 -135 sel 0;
#X obj 185 -109 f \$4;
#X obj 227 -33 outlet;
#X obj 273 -129 f \$4;
#X obj 240 -106 sel;
#X obj 273 -108 + 1;
#X obj 213 -181 t f b;
#X obj 227 -83 f 1;
#X connect 0 0 7 0;
#X connect 1 0 2 0;
#X connect 1 1 5 0;
#X connect 2 0 3 0;
#X connect 4 0 6 0;
#X connect 5 0 8 0;
#X connect 5 1 3 0;
#X connect 6 0 5 1;
#X connect 7 0 1 0;
#X connect 7 1 4 0;
#X connect 8 0 3 0;
#X restore 346 322 pd borders;
#X obj 183 33 r \$3-cell-loadbang;
#X msg 55 309 connect \$1 0 0 \$2;
#X obj 186 436 pack f f f \$3;
#X msg 186 480 obj \$1 100 receive \$3_\$2_\$4;
#X obj 615 144 pack \$3 \$1 \$2;
#X obj 183 57 t b b b b b;
#X msg 615 171 obj 50 50 send \$2_\$3_\$1;
#X connect 0 0 6 1;
#X connect 1 0 3 0;
#X connect 2 0 1 0;
#X connect 3 0 4 0;
#X connect 3 0 18 0;
#X connect 4 0 3 1;
#X connect 5 0 29 0;
#X connect 6 0 7 0;
#X connect 6 0 26 0;
#X connect 7 0 6 1;
#X connect 8 0 9 0;
#X connect 9 0 6 0;
#X connect 10 0 11 0;
#X connect 10 0 12 0;
#X connect 11 0 10 1;
#X connect 12 0 14 0;
#X connect 13 0 14 1;
#X connect 14 0 25 0;
#X connect 15 0 13 0;
#X connect 16 0 0 0;
#X connect 17 0 5 0;
#X connect 18 0 20 0;
#X connect 18 1 17 0;
#X connect 18 2 10 0;
#X connect 18 3 8 0;
#X connect 19 0 28 0;
#X connect 20 0 22 0;
#X connect 20 1 19 1;
#X connect 22 0 19 0;
#X connect 24 0 23 0;
#X connect 25 0 29 1;
#X connect 26 0 29 2;
#X connect 27 0 32 0;
#X connect 28 0 21 0;
#X connect 29 0 30 0;
#X connect 30 0 21 0;
#X connect 31 0 33 0;
#X connect 32 0 2 0;
#X connect 32 1 15 0;
#X connect 32 2 16 0;
#X connect 32 3 24 0;
#X connect 32 4 31 0;
#X connect 33 0 23 0;
#X restore 493 74 pd create send+recives;
#X obj 648 352 r \$3-dieall;
#X obj 504 296 r \$3-randomize;
#X obj 505 173 r \$3-step;
#X obj 300 392 s \$3-celldata;
#X obj 94 230 change;
#X text 243 73 \$3 parrent \$0;
#X obj 100 55 r \$1-\$2-cell-\$3;
#X obj 94 207 r \$0-state;
#X obj 300 287 t b b;
#X obj 300 175 r \$3-output;
#X obj 318 466 r \$0-state;
#X obj 300 490 f;
#X obj 300 515 s \$3-rowdata;
#X obj 319 563 r \$0-state;
#X obj 301 587 f;
#X obj 301 612 s \$3-coldata;
#X text 243 86 \$4 parrent x-size;
#X text 243 98 \$5 parrent y-size;
#X obj 300 442 r \$3-getrow-\$2;
#X obj 301 539 r \$3-getcol-\$1;
#X obj 300 336 - 1;
#X obj 343 336 - 1;
#X obj 300 313 f \$1;
#X obj 343 314 f \$2;
#X text 243 45 \$1 coords x;
#X text 243 57 \$2 coords y;
#X obj 300 365 pack 0 0 0;
#X obj 395 196 t b f;
#X obj 366 259 spigot;
#X obj 339 216 r \$3-outputmode;
#X obj 339 237 == 0;
#X obj 300 258 spigot 1;
#X obj 396 177 change;
#X obj 100 118 pipe;
#X connect 0 0 51 0;
#X connect 2 0 6 1;
#X connect 3 0 9 0;
#X connect 5 0 4 0;
#X connect 6 0 3 1;
#X connect 7 0 50 0;
#X connect 8 0 4 0;
#X connect 9 0 4 0;
#X connect 10 0 9 0;
#X connect 11 0 14 0;
#X connect 11 1 13 0;
#X connect 12 0 1 0;
#X connect 13 0 12 0;
#X connect 14 0 12 0;
#X connect 15 0 6 0;
#X connect 18 0 5 0;
#X connect 19 0 8 0;
#X connect 20 0 3 0;
#X connect 22 0 11 0;
#X connect 24 0 0 0;
#X connect 25 0 22 0;
#X connect 26 0 40 0;
#X connect 26 1 41 0;
#X connect 27 0 49 0;
#X connect 28 0 29 1;
#X connect 29 0 30 0;
#X connect 31 0 32 1;
#X connect 32 0 33 0;
#X connect 36 0 29 0;
#X connect 37 0 32 0;
#X connect 38 0 44 0;
#X connect 39 0 44 1;
#X connect 40 0 38 0;
#X connect 41 0 39 0;
#X connect 44 0 21 0;
#X connect 45 0 46 0;
#X connect 45 1 44 2;
#X connect 46 0 26 0;
#X connect 47 0 48 0;
#X connect 47 0 46 1;
#X connect 48 0 49 1;
#X connect 49 0 26 0;
#X connect 50 0 45 0;
#X connect 51 0 16 0;
#X coords 0 -1 1 1 10 10 2 100 100;
