#N canvas 0 52 1363 716 10;
#X obj 59 205 sel 97 119 115 101 100 102 116 103 122 104 117 106 107
;
#X obj 59 241 f 1;
#X obj 87 241 f 2;
#X obj 115 241 f 3;
#X obj 143 241 f 4;
#X obj 171 241 f 5;
#X obj 199 241 f 6;
#X obj 227 241 f 7;
#X obj 255 241 f 8;
#X obj 283 241 f 9;
#X obj 311 241 f 10;
#X obj 346 241 f 11;
#X obj 380 241 f 12;
#X obj 414 241 f 13;
#X obj 59 159 key;
#X obj 585 363 pack f \$0;
#X msg 585 386 \; \$2-\$1 color 11;
#X obj 804 180 sel 97 119 115 101 100 102 116 103 122 104 117 106 107
;
#X obj 804 216 f 1;
#X obj 832 216 f 2;
#X obj 860 216 f 3;
#X obj 888 216 f 4;
#X obj 916 216 f 5;
#X obj 944 216 f 6;
#X obj 972 216 f 7;
#X obj 1000 216 f 8;
#X obj 1028 216 f 9;
#X obj 1056 216 f 10;
#X obj 1091 216 f 11;
#X obj 1125 216 f 12;
#X obj 1159 216 f 13;
#X obj 1046 426 pack f \$0;
#X obj 802 147 keyup;
#X msg 1047 452 \; \$2-\$1 color 0;
#X obj 1154 429 pack f \$0;
#X msg 1155 455 \; \$2-\$1 color 22;
#X obj 607 731 outlet;
#X obj 529 43 inlet;
#X obj 321 680 + 60;
#X obj 908 612 + 60;
#X obj 908 636 pack f 0;
#X obj 357 680 r \$0-oktave;
#X obj 944 612 r \$0-oktave;
#X obj 572 68 f \$1;
#X obj 572 149 * 12;
#X obj 572 193 s \$0-oktave;
#X obj 572 44 loadbang;
#N canvas 0 50 450 300 key 0;
#X obj 101 101 cnv 6 6 26 empty \$0-1 A 0 20 2 10 -262144 -1 0;
#X coords 0 -1 1 1 8 28 2 100 100;
#X restore 100 115 pd key;
#N canvas 0 50 450 300 key 0;
#X obj 101 101 cnv 6 6 26 empty \$0-3 S 0 20 2 10 -262144 -1 0;
#X coords 0 -1 1 1 8 28 2 100 100;
#X restore 110 115 pd key;
#N canvas 0 50 450 300 key 0;
#X obj 101 101 cnv 6 6 26 empty \$0-5 D 0 20 2 10 -262144 -1 0;
#X coords 0 -1 1 1 8 28 2 100 100;
#X restore 120 115 pd key;
#N canvas 0 50 450 300 key 0;
#X obj 101 101 cnv 6 6 26 empty \$0-6 F 0 20 2 10 -262144 -1 0;
#X coords 0 -1 1 1 8 28 2 100 100;
#X restore 130 115 pd key;
#N canvas 0 50 450 300 key 0;
#X obj 101 101 cnv 6 6 26 empty \$0-8 G 0 20 2 10 -262144 -1 0;
#X coords 0 -1 1 1 8 28 2 100 100;
#X restore 140 115 pd key;
#N canvas 0 50 450 300 key 0;
#X obj 101 101 cnv 6 6 26 empty \$0-10 H 0 20 2 10 -262144 -1 0;
#X coords 0 -1 1 1 8 28 2 100 100;
#X restore 150 115 pd key;
#N canvas 0 50 450 300 key 0;
#X obj 101 101 cnv 6 6 26 empty \$0-12 J 0 20 2 10 -262144 -1 0;
#X coords 0 -1 1 1 8 28 2 100 100;
#X restore 160 115 pd key;
#N canvas 0 50 450 300 key 0;
#X obj 101 101 cnv 6 6 26 empty \$0-13 K 0 20 2 10 -262144 -1 0;
#X coords 0 -1 1 1 8 28 2 100 100;
#X restore 170 115 pd key;
#N canvas 0 50 450 300 key 0;
#X obj 101 101 cnv 5 5 16 empty \$0-2 W 0 10 2 8 -1 -262144 0;
#X coords 0 -1 1 1 7 18 2 100 100;
#X restore 106 115 pd key;
#N canvas 0 50 450 300 key 0;
#X obj 101 101 cnv 5 5 16 empty \$0-4 E 0 10 2 8 -1 -262144 0;
#X coords 0 -1 1 1 7 18 2 100 100;
#X restore 117 115 pd key;
#N canvas 0 50 450 300 key 0;
#X obj 101 101 cnv 5 5 16 empty \$0-7 T 0 10 2 8 -1 -262144 0;
#X coords 0 -1 1 1 7 18 2 100 100;
#X restore 136 115 pd key;
#N canvas 0 50 450 300 key 0;
#X obj 101 101 cnv 5 5 16 empty \$0-9 Z 0 10 2 8 -1 -262144 0;
#X coords 0 -1 1 1 7 18 2 100 100;
#X restore 147 115 pd key;
#N canvas 0 50 450 300 key 0;
#X obj 101 101 cnv 5 5 16 empty \$0-11 U 0 10 2 8 -1 -262144 0;
#X coords 0 -1 1 1 7 18 2 100 100;
#X restore 158 115 pd key;
#X obj 572 171 - 1;
#X obj 641 17 key;
#X obj 597 107 f;
#X obj 641 35 sel 43 45;
#X obj 629 122 +;
#X msg 641 58 1;
#X msg 671 59 -1;
#X obj 641 81 t b f;
#X obj 561 696 unpack;
#X obj 549 730 outlet;
#X obj 9 381 spigot 1;
#X obj 62 360 == 1;
#X obj 11 317 t b f;
#X msg 52 340 0;
#X obj 66 411 spigot 1;
#X obj 97 361 t b f;
#X msg 118 388 0;
#X obj 133 413 == 2;
#X obj 137 463 spigot 1;
#X obj 168 413 t b f;
#X msg 189 440 0;
#X obj 236 529 spigot 1;
#X obj 238 465 t b f;
#X msg 279 488 0;
#X obj 293 558 spigot 1;
#X obj 324 508 t b f;
#X msg 345 535 0;
#X obj 364 610 spigot 1;
#X obj 395 560 t b f;
#X msg 416 587 0;
#X obj 204 464 == 3;
#X obj 289 508 == 4;
#X obj 360 560 == 5;
#X obj 431 612 == 6;
#X obj 204 355 spigot 1;
#X obj 206 291 t b f;
#X msg 247 314 0;
#X obj 261 387 spigot 1;
#X obj 292 335 t b f;
#X msg 313 362 0;
#X obj 332 438 spigot 1;
#X obj 363 388 t b f;
#X msg 384 415 0;
#X obj 431 504 spigot 1;
#X obj 433 440 t b f;
#X msg 474 463 0;
#X obj 495 534 spigot 1;
#X obj 526 484 t b f;
#X msg 547 511 0;
#X obj 573 585 spigot 1;
#X obj 604 535 t b f;
#X msg 625 562 0;
#X obj 257 334 == 7;
#X obj 328 387 == 8;
#X obj 399 439 == 9;
#X obj 484 483 == 10;
#X obj 562 536 == 11;
#X obj 640 587 == 12;
#X obj 686 614 spigot 1;
#X obj 717 564 t b f;
#X msg 738 591 0;
#X obj 753 616 == 13;
#X obj 321 702 pack f 127;
#X connect 0 0 1 0;
#X connect 0 1 2 0;
#X connect 0 2 3 0;
#X connect 0 3 4 0;
#X connect 0 4 5 0;
#X connect 0 5 6 0;
#X connect 0 6 7 0;
#X connect 0 7 8 0;
#X connect 0 8 9 0;
#X connect 0 9 10 0;
#X connect 0 10 11 0;
#X connect 0 11 12 0;
#X connect 0 12 13 0;
#X connect 1 0 15 0;
#X connect 1 0 72 0;
#X connect 2 0 15 0;
#X connect 2 0 75 0;
#X connect 3 0 15 0;
#X connect 3 0 79 0;
#X connect 4 0 15 0;
#X connect 4 0 82 0;
#X connect 5 0 15 0;
#X connect 5 0 85 0;
#X connect 6 0 15 0;
#X connect 6 0 88 0;
#X connect 7 0 15 0;
#X connect 7 0 95 0;
#X connect 8 0 15 0;
#X connect 8 0 98 0;
#X connect 9 0 15 0;
#X connect 9 0 101 0;
#X connect 10 0 15 0;
#X connect 10 0 104 0;
#X connect 11 0 15 0;
#X connect 11 0 107 0;
#X connect 12 0 15 0;
#X connect 12 0 110 0;
#X connect 13 0 15 0;
#X connect 13 0 119 0;
#X connect 14 0 0 0;
#X connect 15 0 16 0;
#X connect 17 0 18 0;
#X connect 17 1 19 0;
#X connect 17 2 20 0;
#X connect 17 3 21 0;
#X connect 17 4 22 0;
#X connect 17 5 23 0;
#X connect 17 6 24 0;
#X connect 17 7 25 0;
#X connect 17 8 26 0;
#X connect 17 9 27 0;
#X connect 17 10 28 0;
#X connect 17 11 29 0;
#X connect 17 12 30 0;
#X connect 18 0 31 0;
#X connect 18 0 39 0;
#X connect 18 0 71 0;
#X connect 19 0 34 0;
#X connect 19 0 39 0;
#X connect 19 0 77 0;
#X connect 20 0 31 0;
#X connect 20 0 39 0;
#X connect 20 0 90 0;
#X connect 21 0 34 0;
#X connect 21 0 39 0;
#X connect 21 0 91 0;
#X connect 22 0 31 0;
#X connect 22 0 39 0;
#X connect 22 0 92 0;
#X connect 23 0 31 0;
#X connect 23 0 39 0;
#X connect 23 0 93 0;
#X connect 24 0 34 0;
#X connect 24 0 39 0;
#X connect 24 0 112 0;
#X connect 25 0 31 0;
#X connect 25 0 39 0;
#X connect 25 0 113 0;
#X connect 26 0 34 0;
#X connect 26 0 39 0;
#X connect 26 0 114 0;
#X connect 27 0 31 0;
#X connect 27 0 39 0;
#X connect 27 0 115 0;
#X connect 28 0 34 0;
#X connect 28 0 39 0;
#X connect 28 0 116 0;
#X connect 29 0 31 0;
#X connect 29 0 39 0;
#X connect 29 0 117 0;
#X connect 30 0 31 0;
#X connect 30 0 39 0;
#X connect 30 0 121 0;
#X connect 31 0 33 0;
#X connect 32 0 17 0;
#X connect 34 0 35 0;
#X connect 37 0 43 0;
#X connect 38 0 122 0;
#X connect 39 0 40 0;
#X connect 40 0 68 0;
#X connect 41 0 38 1;
#X connect 42 0 39 1;
#X connect 43 0 44 0;
#X connect 43 0 62 1;
#X connect 44 0 60 0;
#X connect 46 0 43 0;
#X connect 60 0 45 0;
#X connect 61 0 63 0;
#X connect 62 0 64 0;
#X connect 63 0 65 0;
#X connect 63 1 66 0;
#X connect 64 0 62 1;
#X connect 64 0 44 0;
#X connect 65 0 67 0;
#X connect 66 0 67 0;
#X connect 67 0 62 0;
#X connect 67 1 64 1;
#X connect 68 0 69 0;
#X connect 68 1 36 0;
#X connect 70 0 38 0;
#X connect 71 0 70 1;
#X connect 72 0 73 0;
#X connect 72 1 70 0;
#X connect 73 0 70 1;
#X connect 74 0 38 0;
#X connect 75 0 76 0;
#X connect 75 1 74 0;
#X connect 76 0 74 1;
#X connect 77 0 74 1;
#X connect 78 0 38 0;
#X connect 79 0 80 0;
#X connect 79 1 78 0;
#X connect 80 0 78 1;
#X connect 81 0 38 0;
#X connect 82 0 83 0;
#X connect 82 1 81 0;
#X connect 83 0 81 1;
#X connect 84 0 38 0;
#X connect 85 0 86 0;
#X connect 85 1 84 0;
#X connect 86 0 84 1;
#X connect 87 0 38 0;
#X connect 88 0 89 0;
#X connect 88 1 87 0;
#X connect 89 0 87 1;
#X connect 90 0 78 1;
#X connect 91 0 81 1;
#X connect 92 0 84 1;
#X connect 93 0 87 1;
#X connect 94 0 38 0;
#X connect 95 0 96 0;
#X connect 95 1 94 0;
#X connect 96 0 94 1;
#X connect 97 0 38 0;
#X connect 98 0 99 0;
#X connect 98 1 97 0;
#X connect 99 0 97 1;
#X connect 100 0 38 0;
#X connect 101 0 102 0;
#X connect 101 1 100 0;
#X connect 102 0 100 1;
#X connect 103 0 38 0;
#X connect 104 0 105 0;
#X connect 104 1 103 0;
#X connect 105 0 103 1;
#X connect 106 0 38 0;
#X connect 107 0 108 0;
#X connect 107 1 106 0;
#X connect 108 0 106 1;
#X connect 109 0 38 0;
#X connect 110 0 111 0;
#X connect 110 1 109 0;
#X connect 111 0 109 1;
#X connect 112 0 94 1;
#X connect 113 0 97 1;
#X connect 114 0 100 1;
#X connect 115 0 103 1;
#X connect 116 0 106 1;
#X connect 117 0 109 1;
#X connect 118 0 38 0;
#X connect 119 0 120 0;
#X connect 119 1 118 0;
#X connect 120 0 118 1;
#X connect 121 0 118 1;
#X connect 122 0 68 0;
#X coords 0 -1 1 1 78 46 1 100 100;
