#N canvas 610 373 450 401 10;
#X obj 105 147 list split;
#X obj 196 79 list length;
#X obj 163 101 random;
#X obj 163 122 + 1;
#X obj 162 194 list length;
#X obj 105 171 t l l;
#X obj 105 238 list split;
#X obj 162 217 - 1;
#X obj 103 117 list;
#X obj 52 72 t b b;
#X obj 52 20 inlet bang;
#X obj 196 28 inlet list;
#X obj 133 267 outlet element;
#X connect 0 0 5 0;
#X connect 1 0 2 1;
#X connect 2 0 3 0;
#X connect 3 0 0 1;
#X connect 4 0 7 0;
#X connect 5 0 6 0;
#X connect 5 1 4 0;
#X connect 6 1 12 0;
#X connect 7 0 6 1;
#X connect 8 0 0 0;
#X connect 9 0 8 0;
#X connect 9 1 2 0;
#X connect 10 0 9 0;
#X connect 11 0 1 0;
#X connect 11 0 8 1;
