#N canvas 472 149 641 458 10;
#X obj 220 303 until;
#X obj 221 333 f;
#X obj 252 336 + 1;
#X obj 221 377 outlet;
#X obj 225 67 f \$2;
#X obj 315 85 f \$1;
#X obj 224 34 t b b;
#X obj 224 9 inlet;
#X obj 306 9 inlet;
#X obj 355 9 inlet;
#X obj 220 249 -;
#X obj 338 172 expr if($f1>$f2 \, 1 \, -1);
#X obj 220 273 *;
#X obj 239 212 - 1;
#X obj 239 188 f;
#X obj 220 105 t f b f;
#X connect 0 0 1 0;
#X connect 1 0 2 0;
#X connect 1 0 3 0;
#X connect 2 0 1 1;
#X connect 4 0 15 0;
#X connect 5 0 11 1;
#X connect 5 0 1 1;
#X connect 5 0 14 1;
#X connect 6 0 4 0;
#X connect 6 1 5 0;
#X connect 7 0 6 0;
#X connect 8 0 5 1;
#X connect 9 0 4 1;
#X connect 10 0 12 0;
#X connect 11 0 2 1;
#X connect 11 0 12 1;
#X connect 11 0 13 1;
#X connect 12 0 0 0;
#X connect 13 0 10 1;
#X connect 14 0 13 0;
#X connect 15 0 10 0;
#X connect 15 1 14 0;
#X connect 15 2 11 0;
