#N canvas 581 173 446 487 10;
#X obj 229 61 list length;
#X obj 207 277 list length;
#X obj 140 256 t l l;
#X obj 140 319 list split;
#X obj 207 298 - 1;
#X obj 163 179 list;
#X obj 145 120 until;
#X obj 140 233 list split 1;
#X obj 145 148 t b b;
#X obj 145 97 f;
#X obj 275 363 list;
#X obj 318 385 t l;
#X obj 102 405 list;
#N canvas 179 133 521 472 urn 0;
#X obj 300 40 inlet;
#X obj 112 38 inlet;
#X obj 112 96 random;
#X obj 300 123 s \$0-urne;
#X msg 300 97 resize \$1;
#X obj 300 146 table \$0-urne 10;
#X obj 199 368 tabwrite \$0-urne;
#X obj 199 324 t b f;
#X msg 199 345 1;
#X obj 86 143 tabread \$0-urne;
#X obj 112 118 t f f;
#X obj 86 168 sel 1 0;
#X obj 199 288 f;
#X obj 139 370 outlet;
#X msg 394 97 const 0;
#X obj 109 192 t b b;
#X obj 82 259 f;
#X obj 112 260 + 1;
#X obj 11 205 spigot 1;
#X msg 331 193 0;
#X obj 122 305 - 1;
#X obj 400 23 inlet clear;
#X obj 82 306 <;
#X connect 0 0 2 1;
#X connect 0 0 4 0;
#X connect 0 0 20 0;
#X connect 1 0 2 0;
#X connect 2 0 10 0;
#X connect 4 0 3 0;
#X connect 7 0 8 0;
#X connect 7 1 6 1;
#X connect 8 0 6 0;
#X connect 9 0 11 0;
#X connect 10 0 9 0;
#X connect 10 1 12 1;
#X connect 11 0 18 0;
#X connect 11 1 15 0;
#X connect 12 0 7 0;
#X connect 12 0 13 0;
#X connect 14 0 3 0;
#X connect 15 0 16 0;
#X connect 15 1 12 0;
#X connect 16 0 17 0;
#X connect 16 0 22 0;
#X connect 17 0 16 1;
#X connect 18 0 2 0;
#X connect 19 0 16 1;
#X connect 20 0 22 1;
#X connect 21 0 19 0;
#X connect 21 0 14 0;
#X connect 22 0 18 1;
#X restore 294 171 pd urn;
#X obj 243 229 + 1;
#X obj 102 34 t bang bang list list bang bang;
#X obj 102 427 outlet;
#X obj 102 5 inlet;
#X connect 0 0 9 1;
#X connect 0 0 13 1;
#X connect 1 0 4 0;
#X connect 2 0 3 0;
#X connect 2 1 1 0;
#X connect 3 1 10 0;
#X connect 4 0 3 1;
#X connect 5 0 7 0;
#X connect 6 0 8 0;
#X connect 7 0 2 0;
#X connect 8 0 5 0;
#X connect 8 1 13 0;
#X connect 9 0 6 0;
#X connect 10 0 11 0;
#X connect 10 0 12 1;
#X connect 11 0 10 1;
#X connect 12 0 16 0;
#X connect 13 0 14 0;
#X connect 14 0 7 1;
#X connect 15 0 12 0;
#X connect 15 1 9 0;
#X connect 15 2 5 1;
#X connect 15 3 0 0;
#X connect 15 4 10 1;
#X connect 15 5 13 2;
#X connect 17 0 15 0;
