#N canvas 429 232 450 300 10;
#X obj 157 136 pp.listrand;
#X obj 157 97 bng 15 250 50 0 empty empty empty 17 7 0 10 -262144 -1
-1;
#X msg 220 68 1 2 three;
#X msg 237 91 3 4 5 6 7 hate;
#X obj 157 161 print;
#X text 112 31 [pp.listrand] - get random list element;
#X connect 0 0 4 0;
#X connect 1 0 0 0;
#X connect 2 0 0 1;
#X connect 3 0 0 1;
