#N canvas 288 116 685 615 10;
#X floatatom 219 430 5 0 0 0 - - -, f 5;
#X text 168 160 write to textfile;
#X text 166 180 read from textfile;
#X msg 123 206 clear;
#X text 164 207 delete all savings;
#X msg 38 178 read firstorder.txt;
#X msg 37 157 write firstorder.txt;
#X msg 232 301 1;
#X msg 241 323 4;
#X msg 249 346 2;
#X msg 384 377 1 1 \, 4 2 \, 1 2 \, 1 4 \, 1 2 \, 2 1 \, 2 4;
#X obj 219 405 pp.markov, f 28;
#X floatatom 301 342 5 0 0 0 - - -, f 5;
#X text 301 318 1 save:;
#X text 337 343 send a stream of numbers...;
#X text 438 360 ..or send lists of 2;
#X obj 219 452 s state;
#X obj 234 254 r state;
#X obj 219 276 f;
#X obj 215 255 bng 15 250 50 0 empty empty empty 17 7 0 10 -262144
-1 -1;
#X text 198 232 2 read;
#X floatatom 250 372 5 0 0 0 - - -, f 5;
#X text 117 98 [pp.markov] - first order markovchains;
#X connect 0 0 16 0;
#X connect 3 0 11 0;
#X connect 5 0 11 0;
#X connect 6 0 11 0;
#X connect 7 0 11 0;
#X connect 8 0 11 0;
#X connect 9 0 11 0;
#X connect 10 0 11 2;
#X connect 11 0 0 0;
#X connect 12 0 11 1;
#X connect 17 0 18 1;
#X connect 18 0 11 0;
#X connect 19 0 18 0;
#X connect 21 0 11 0;
