#N canvas 479 222 445 496 10;
#N canvas 76 95 883 671 splitfilename 0;
#X obj 425 37 list fromsymbol;
#X obj 425 59 trigger list list bang;
#X obj 425 81 list length;
#X obj 310 169 until;
#X obj 310 195 f;
#X obj 338 210 - 1;
#X obj 383 339 t f f;
#X obj 425 104 t f f;
#X obj 414 413 t l;
#X obj 363 491 list;
#X obj 501 355 sel;
#X obj 363 513 list tosymbol;
#X obj 559 275 loadbang;
#X obj 559 297 symbol /;
#X obj 559 319 list fromsymbol;
#X obj 383 413 list;
#X obj 331 294 sel 1;
#X obj 383 312 list store;
#X msg 383 287 get \$1 1;
#X obj 185 487 list tosymbol;
#X obj 185 463 list store;
#X msg 185 438 get 0 \$1;
#X obj 185 413 f;
#X obj 363 535 outlet;
#X text 407 538 filename;
#X obj 185 532 outlet;
#X text 226 532 path;
#X obj 544 383 t b b b;
#X obj 312 240 t f f f;
#X obj 425 15 inlet;
#X connect 0 0 1 0;
#X connect 1 0 2 0;
#X connect 1 1 17 1;
#X connect 1 1 20 1;
#X connect 1 2 15 1;
#X connect 2 0 7 0;
#X connect 3 0 4 0;
#X connect 4 0 5 0;
#X connect 4 0 28 0;
#X connect 5 0 4 1;
#X connect 6 0 15 0;
#X connect 6 1 10 0;
#X connect 7 0 3 0;
#X connect 7 1 4 1;
#X connect 8 0 15 1;
#X connect 9 0 11 0;
#X connect 10 0 27 0;
#X connect 11 0 23 0;
#X connect 12 0 13 0;
#X connect 13 0 14 0;
#X connect 14 0 10 1;
#X connect 15 0 8 0;
#X connect 15 0 9 1;
#X connect 16 0 9 0;
#X connect 17 0 6 0;
#X connect 18 0 17 0;
#X connect 19 0 25 0;
#X connect 20 0 19 0;
#X connect 21 0 20 0;
#X connect 22 0 21 0;
#X connect 27 0 22 0;
#X connect 27 1 9 0;
#X connect 27 2 3 1;
#X connect 28 0 22 1;
#X connect 28 1 16 0;
#X connect 28 2 18 0;
#X connect 29 0 0 0;
#X restore 218 366 pd splitfilename;
#X obj 68 409 openpanel;
#X obj 68 145 f;
#X obj 98 146 + 1;
#X obj 68 168 sel 0;
#X obj 141 200 t b;
#X msg 129 115 0;
#X obj 229 99 t b;
#X obj 89 35 inlet;
#X obj 89 58 route reset;
#X obj 68 105 t b;
#X obj 68 441 outlet;
#X obj 68 352 symbol ./;
#X obj 119 169 symbol ./;
#X obj 141 351 symbol ./;
#X obj 177 207 savestate;
#X obj 228 229 symbol ./;
#X obj 177 257 list trim;
#X obj 177 280 symbol;
#X connect 0 0 14 1;
#X connect 0 0 16 1;
#X connect 1 0 11 0;
#X connect 1 0 0 0;
#X connect 2 0 3 0;
#X connect 2 0 4 0;
#X connect 3 0 2 1;
#X connect 4 0 12 0;
#X connect 4 1 5 0;
#X connect 5 0 14 0;
#X connect 6 0 2 1;
#X connect 7 0 6 0;
#X connect 7 0 13 0;
#X connect 8 0 9 0;
#X connect 9 0 7 0;
#X connect 9 1 10 0;
#X connect 10 0 2 0;
#X connect 12 0 1 0;
#X connect 13 0 12 1;
#X connect 13 0 14 1;
#X connect 14 0 1 0;
#X connect 15 0 17 0;
#X connect 15 1 16 0;
#X connect 16 0 15 0;
#X connect 17 0 18 0;
#X connect 18 0 12 1;
