#N canvas 285 52 685 615 10;
#X floatatom 219 540 5 0 0 0 - - -, f 5;
#X text 168 96 write to textfile;
#X text 166 116 read from textfile;
#X msg 123 142 clear;
#X text 164 143 delete all savings;
#X msg 38 114 read firstorder.txt;
#X msg 37 93 write firstorder.txt;
#X floatatom 301 456 5 0 0 0 - - -, f 5;
#X text 301 432 1 save:;
#X text 337 457 send a stream of numbers...;
#X obj 219 562 s state;
#X obj 234 203 r state;
#X obj 219 226 f;
#X obj 215 199 bng 15 250 50 0 empty empty empty 17 7 0 10 -262144
-1 -1;
#X text 198 176 2 read;
#X obj 219 515 pp.markov2, f 28;
#X text 441 474 ..or send lists of 3;
#X msg 384 491 1 1 2 \, 4 2 1 \, 1 2 1 \, 1 4 2 \, 1 2 4;
#X msg 232 387 1 1;
#X msg 241 409 4 2;
#X msg 249 432 1 2;
#X obj 219 335 pack;
#X obj 219 290 t f f b;
#X obj 242 315 f;
#X msg 219 358 \$2 \$1;
#X text 261 360 send prev. & current values;
#X floatatom 247 253 5 0 0 0 - - -, f 5;
#X text 117 42 [pp.markov2] - second order markovchains;
#X connect 0 0 10 0;
#X connect 3 0 15 0;
#X connect 5 0 15 0;
#X connect 6 0 15 0;
#X connect 7 0 15 1;
#X connect 11 0 12 1;
#X connect 12 0 22 0;
#X connect 13 0 12 0;
#X connect 15 0 0 0;
#X connect 17 0 15 2;
#X connect 18 0 15 0;
#X connect 19 0 15 0;
#X connect 20 0 15 0;
#X connect 21 0 24 0;
#X connect 22 0 21 0;
#X connect 22 1 23 1;
#X connect 22 2 23 0;
#X connect 23 0 21 1;
#X connect 24 0 15 0;
#X connect 26 0 22 0;
