#N canvas 3 52 731 573 10;
#N canvas 689 448 450 317 firstout 0;
#X obj 133 35 inlet;
#X obj 215 73 f;
#X obj 247 80 + 1;
#X obj 133 99 list prepend 1;
#X obj 134 123 route 0;
#X obj 175 174 outlet;
#X obj 230 30 r \$0-reset;
#X msg 230 50 0;
#X obj 145 60 t l b;
#X msg 174 147 \$2 \$3;
#X connect 0 0 8 0;
#X connect 1 0 2 0;
#X connect 1 0 3 1;
#X connect 2 0 1 1;
#X connect 3 0 4 0;
#X connect 4 1 9 0;
#X connect 6 0 7 0;
#X connect 7 0 1 1;
#X connect 8 0 3 0;
#X connect 8 1 1 0;
#X connect 9 0 5 0;
#X restore 360 111 pd firstout;
#X obj 288 478 list;
#X obj 333 483 t l;
#X obj 221 510 list;
#X obj 221 536 t b l;
#X obj 98 342 r \$0-reset;
#N canvas 913 337 450 428 random 0;
#X obj 115 157 list split;
#X obj 206 89 list length;
#X obj 173 111 random;
#X obj 173 132 + 1;
#X obj 172 204 list length;
#X obj 115 181 t l l;
#X obj 115 248 list split;
#X obj 172 227 - 1;
#X obj 113 127 list;
#X obj 62 82 t b b;
#X obj 62 30 inlet bang;
#X obj 206 38 inlet list;
#X obj 148 311 outlet element;
#X obj 148 280 list trim;
#X connect 0 0 5 0;
#X connect 1 0 2 1;
#X connect 2 0 3 0;
#X connect 3 0 0 1;
#X connect 4 0 7 0;
#X connect 5 0 6 0;
#X connect 5 1 4 0;
#X connect 6 1 13 0;
#X connect 7 0 6 1;
#X connect 8 0 0 0;
#X connect 9 0 8 0;
#X connect 9 1 2 0;
#X connect 10 0 9 0;
#X connect 11 0 1 0;
#X connect 11 0 8 1;
#X connect 13 0 12 0;
#X restore 221 559 pd random listelement;
#X obj 221 604 outlet;
#X obj 7 121 s \$0-reset;
#X obj 53 46 inlet;
#X obj 360 59 inlet;
#X msg 100 365 clear;
#X obj 248 406 textfile;
#X obj 443 221 list prepend add;
#X obj 443 244 list trim;
#X obj 248 367 until;
#X msg 80 132 write \$1;
#X obj 53 82 route clear write read;
#X msg 139 134 read \$1;
#X obj 79 112 symbol;
#X obj 139 113 symbol;
#X msg 318 364 rewind;
#X obj 262 451 route;
#X obj 240 300 t b b f b;
#X obj 443 60 inlet;
#N canvas 3 52 450 300 pack 0;
#X obj 169 46 inlet;
#X obj 169 116 pack;
#X obj 169 71 t f f b;
#X obj 192 96 f;
#X msg 169 139 \$2 \$1;
#X obj 169 162 outlet;
#X connect 0 0 2 0;
#X connect 1 0 4 0;
#X connect 2 0 1 0;
#X connect 2 1 3 1;
#X connect 2 2 3 0;
#X connect 3 0 1 1;
#X connect 4 0 5 0;
#X restore 360 83 pd pack;
#X connect 0 0 13 0;
#X connect 1 0 2 0;
#X connect 1 0 3 1;
#X connect 2 0 1 1;
#X connect 3 0 4 0;
#X connect 4 0 6 0;
#X connect 4 1 6 1;
#X connect 5 0 11 0;
#X connect 6 0 7 0;
#X connect 9 0 17 0;
#X connect 10 0 25 0;
#X connect 11 0 12 0;
#X connect 12 0 22 0;
#X connect 12 1 15 1;
#X connect 13 0 14 0;
#X connect 14 0 12 0;
#X connect 15 0 12 0;
#X connect 16 0 12 0;
#X connect 17 0 8 0;
#X connect 17 1 19 0;
#X connect 17 2 20 0;
#X connect 17 3 23 0;
#X connect 18 0 12 0;
#X connect 19 0 16 0;
#X connect 20 0 18 0;
#X connect 21 0 12 0;
#X connect 22 0 1 0;
#X connect 23 0 3 0;
#X connect 23 1 15 0;
#X connect 23 2 22 1;
#X connect 23 3 1 1;
#X connect 23 3 21 0;
#X connect 24 0 13 0;
#X connect 25 0 0 0;
