#N canvas 2 54 568 300 10;
#X obj 121 129 bng 15 250 50 0 empty empty empty 17 7 0 10 -262144
-1 -1;
#X obj 121 256 print;
#X text 112 59 like openpanel \, but remembers the last directory;
#X msg 139 161 reset;
#X text 136 130 open;
#X text 179 158 reset to directory of the parrent patch;
#X obj 121 233 pp.mopenpanel;
#A saved ;
#X connect 0 0 6 0;
#X connect 3 0 6 0;
#X connect 6 0 1 0;
