#N canvas 189 175 450 300 10;
#X obj 137 144 expr pow($f1 \, 1/$f2);
#X obj 274 120 f \$1;
#X obj 288 86 loadbang;
#X obj 274 48 inlet;
#X obj 137 75 inlet;
#X obj 137 166 outlet;
#X connect 0 0 5 0;
#X connect 1 0 0 1;
#X connect 2 0 1 0;
#X connect 3 0 1 0;
#X connect 4 0 0 0;
