#N canvas 216 200 750 454 10;
#X floatatom 112 104 5 0 0 0 - - -, f 5;
#X obj 402 112 tgl 15 0 empty empty empty 17 7 0 10 -262144 -1 -1 1
1;
#X msg 402 136 \; pd dsp \$1;
#N canvas 62 50 450 278 (subpatch) 0;
#X array \$0-scope 441 float 0;
#X coords 0 1.1 440 -1.1 200 140 1 0 0;
#X restore 400 198 graph;
#X obj 138 239 loadbang;
#X msg 170 199 0;
#X text 199 202 reset phase;
#X obj 207 243 tgl 15 0 empty empty empty 17 7 0 10 -262144 -1 -1 0
1;
#X obj 138 285 tabwrite~ \$0-scope;
#X text 152 105 frequency(Hz);
#X text 108 58 https://github.com/cfloisand/pd-polyblep/blob/master/Source/polyblep~.c
;
#X obj 111 198 pp.pwm~;
#X text 108 4 pp.pwm~;
#X obj 138 262 metro 100;
#X obj 135 158 phasor~ 0.1;
#X obj 112 124 sig~ 220;
#X text 107 29 Band-limited squarewave-oscillator based on christian
foisland's polyblep implementation:;
#X obj 110 399 dac~;
#X floatatom 141 308 5 0 0 0 - - -, f 5;
#X obj 141 327 dbtorms;
#X msg 141 349 \$1 100;
#X obj 141 371 line~;
#X obj 111 372 *~;
#X text 218 159 pulse-width modulation;
#X connect 0 0 15 0;
#X connect 1 0 2 0;
#X connect 4 0 13 0;
#X connect 5 0 11 2;
#X connect 7 0 13 0;
#X connect 11 0 8 0;
#X connect 11 0 22 0;
#X connect 13 0 8 0;
#X connect 14 0 11 1;
#X connect 15 0 11 0;
#X connect 18 0 19 0;
#X connect 19 0 20 0;
#X connect 20 0 21 0;
#X connect 21 0 22 1;
#X connect 22 0 17 0;
#X connect 22 0 17 1;
