#N canvas 300 96 823 591 10;
#X obj 424 245 random 2;
#X obj 330 270 list prepend 0;
#X obj 330 292 route 0 1;
#X obj 324 337 +;
#X obj 371 335 -;
#X obj 266 301 f;
#X obj 330 213 t f b b;
#X obj 530 265 + 1;
#X obj 323 369 expr if($f1<0 \, $f1*-1 \, $f1);
#X text 604 244 magnitude;
#X text 604 427 range;
#X obj 530 243 random \$2;
#X obj 590 91 inlet magnitude;
#X obj 423 83 inlet range;
#X obj 266 511 outlet;
#X obj 323 426 expr if($f1>$f2 \, $f2- ($f1-$f2) \, $f1);
#X obj 579 395 f \$1;
#X obj 604 346 loadbang;
#X obj 165 235 random \$1;
#X obj 164 211 loadbang;
#X obj 590 221 abs;
#X obj 590 200 min \$1;
#X msg 518 190 seed \$1;
#X msg 424 202 seed \$1;
#X obj 424 180 + 1;
#X obj 266 111 route seed;
#X obj 266 72 inlet;
#X connect 0 0 1 1;
#X connect 1 0 2 0;
#X connect 2 0 3 0;
#X connect 2 1 4 0;
#X connect 3 0 8 0;
#X connect 4 0 8 0;
#X connect 5 0 6 0;
#X connect 5 0 14 0;
#X connect 6 0 1 0;
#X connect 6 1 0 0;
#X connect 6 2 11 0;
#X connect 7 0 4 1;
#X connect 7 0 3 1;
#X connect 8 0 15 0;
#X connect 11 0 7 0;
#X connect 12 0 21 0;
#X connect 13 0 21 1;
#X connect 13 0 16 0;
#X connect 15 0 5 1;
#X connect 16 0 15 1;
#X connect 17 0 16 0;
#X connect 18 0 5 1;
#X connect 19 0 18 0;
#X connect 20 0 11 1;
#X connect 21 0 20 0;
#X connect 22 0 11 0;
#X connect 23 0 0 0;
#X connect 24 0 23 0;
#X connect 25 0 24 0;
#X connect 25 0 22 0;
#X connect 25 1 5 0;
#X connect 26 0 25 0;
