#N canvas 379 95 596 498 10;
#X obj 178 84 bng 15 250 50 0 empty empty empty 17 7 0 10 -262144 -1
-1;
#X obj 178 41 tgl 15 0 empty empty empty 17 7 0 10 -262144 -1 -1 0
1;
#X floatatom 308 171 5 0 0 0 - - -, f 5;
#N canvas 0 50 450 250 (subpatch) 0;
#X array \$0-randomwalk-story 300 float 2;
#X coords 0 100 300 0 300 120 1 0 0;
#X restore 177 356 graph;
#X obj 178 305 tabwrite \$0-randomwalk-story;
#X obj 178 241 t f b;
#N canvas 0 50 450 300 count 0;
#X obj 200 125 f;
#X obj 237 128 + 1;
#X obj 199 86 inlet;
#X obj 352 249 outlet;
#X msg 177 225 const 0;
#X obj 178 249 s \$0-randomwalk-story;
#X obj 174 181 t b b;
#X msg 143 150 0;
#X obj 198 154 sel 300;
#X connect 0 0 1 0;
#X connect 0 0 8 0;
#X connect 1 0 0 1;
#X connect 2 0 0 0;
#X connect 4 0 5 0;
#X connect 6 0 7 0;
#X connect 6 1 4 0;
#X connect 7 0 0 0;
#X connect 8 0 6 0;
#X connect 8 1 3 0;
#X restore 371 281 pd count;
#X obj 178 63 metro 50;
#X text 480 464 0;
#X text 479 347 100;
#X obj 178 189 pp.randomwalk 100 5;
#X text 77 18 [pp.randomwalk] - random-walk generator;
#X text 40 47 arguments:;
#X text 58 77 \$1: range 0-n;
#X text 58 96 \$2: magnitude;
#X msg 197 120 0;
#X text 228 117 set new start point;
#X floatatom 178 215 5 0 0 0 - - -, f 5;
#X text 349 170 magnitude;
#X floatatom 243 148 5 0 0 0 - - -, f 5;
#X text 283 147 range 0 - n;
#X msg 104 152 seed 123;
#X connect 0 0 10 0;
#X connect 1 0 7 0;
#X connect 2 0 10 2;
#X connect 5 0 4 0;
#X connect 5 1 6 0;
#X connect 6 0 4 1;
#X connect 7 0 0 0;
#X connect 10 0 17 0;
#X connect 15 0 10 0;
#X connect 17 0 5 0;
#X connect 19 0 10 1;
#X connect 21 0 10 0;
