#N canvas 435 193 450 300 10;
#X symbolatom 114 158 15 0 0 0 - - -;
#X obj 113 110 symbol;
#X msg 113 87 /hululu/user/blubb.wav;
#X obj 114 132 pp.splitfilename;
#X symbolatom 210 158 10 0 0 0 - - -;
#X text 86 47 [pp.splitfilename];
#X connect 1 0 3 0;
#X connect 2 0 1 0;
#X connect 3 0 0 0;
#X connect 3 1 4 0;
