#N canvas 537 126 750 454 10;
#X obj 215 52 inlet~ freq;
#X obj 317 46 inlet phase;
#X obj 214 150 *~ 2;
#X obj 214 172 -~ 1;
#X obj 215 203 +~;
#X obj 215 225 outlet~;
#X text 84 264 Band-limited saw based on christian foisland's polyblep
implementation:;
#X text 84 293 https://github.com/cfloisand/pd-polyblep/blob/master/Source/polyblep~.c
;
#N canvas 558 96 684 548 polyblep 0;
#X obj 440 70 inlet~ freq;
#X obj 188 72 inlet~ phasor;
#X obj 471 110 loadbang;
#X obj 471 132 samplerate~;
#X msg 471 154 1 \$1;
#X obj 471 176 /;
#X obj 471 197 sig~;
#X obj 439 168 *~;
#X obj 422 329 sig~ 1;
#X obj 422 351 -~;
#X obj 313 164 sig~ 1;
#X obj 313 186 /~;
#X obj 184 230 *~;
#X obj 81 333 *~;
#X obj 230 379 -~;
#X obj 230 401 *~;
#X obj 212 446 -~;
#X obj 212 468 outlet~;
#X obj 112 357 expr~ $v1<=$v2;
#X obj 80 308 -~ 1;
#X obj 249 358 -~ 1;
#X obj 81 382 *~;
#X obj 231 423 *~;
#X obj 326 373 expr~ $v1>$v2;
#X connect 0 0 7 0;
#X connect 1 0 12 0;
#X connect 1 0 18 0;
#X connect 1 0 23 0;
#X connect 2 0 3 0;
#X connect 3 0 4 0;
#X connect 4 0 5 0;
#X connect 5 0 6 0;
#X connect 6 0 7 1;
#X connect 7 0 9 1;
#X connect 7 0 11 1;
#X connect 7 0 18 1;
#X connect 8 0 9 0;
#X connect 9 0 23 1;
#X connect 10 0 11 0;
#X connect 11 0 12 1;
#X connect 11 0 20 0;
#X connect 12 0 14 0;
#X connect 12 0 19 0;
#X connect 13 0 21 0;
#X connect 14 0 15 0;
#X connect 14 0 15 1;
#X connect 15 0 22 0;
#X connect 16 0 17 0;
#X connect 18 0 21 1;
#X connect 19 0 13 0;
#X connect 19 0 13 1;
#X connect 20 0 14 1;
#X connect 21 0 16 0;
#X connect 22 0 16 1;
#X connect 23 0 22 1;
#X restore 282 167 pd polyblep;
#X obj 214 120 phasor~;
#X connect 0 0 8 1;
#X connect 0 0 9 0;
#X connect 1 0 9 1;
#X connect 2 0 3 0;
#X connect 3 0 4 0;
#X connect 4 0 5 0;
#X connect 8 0 4 1;
#X connect 9 0 8 0;
#X connect 9 0 2 0;
