#N canvas 216 200 750 454 10;
#X floatatom 112 104 5 0 0 0 - - -, f 5;
#X obj 297 105 tgl 15 0 empty empty empty 17 7 0 10 -262144 -1 -1 0
1;
#X msg 297 129 \; pd dsp \$1;
#N canvas 62 50 450 278 (subpatch) 0;
#X array \$0-scope 441 float 0;
#X coords 0 1 440 -1 200 140 1 0 0;
#X restore 295 191 graph;
#X obj 138 190 loadbang;
#X msg 169 150 0;
#X text 198 153 reset phase;
#X obj 111 149 pp.saw~;
#X obj 203 196 tgl 15 0 empty empty empty 17 7 0 10 -262144 -1 -1 0
1;
#X obj 138 236 tabwrite~ \$0-scope;
#X text 151 104 frequency(Hz);
#X text 108 58 https://github.com/cfloisand/pd-polyblep/blob/master/Source/polyblep~.c
;
#X text 108 5 pp.saw~;
#X text 108 29 Band-limited saw based on christian foisland's polyblep
implementation:;
#X obj 111 356 dac~;
#X floatatom 142 265 5 0 0 0 - - -, f 5;
#X obj 142 284 dbtorms;
#X msg 142 306 \$1 100;
#X obj 142 328 line~;
#X obj 112 329 *~;
#X obj 112 124 sig~ 220;
#X obj 138 213 metro 100;
#X connect 0 0 20 0;
#X connect 1 0 2 0;
#X connect 4 0 21 0;
#X connect 5 0 7 1;
#X connect 7 0 9 0;
#X connect 7 0 19 0;
#X connect 8 0 21 0;
#X connect 15 0 16 0;
#X connect 16 0 17 0;
#X connect 17 0 18 0;
#X connect 18 0 19 1;
#X connect 19 0 14 0;
#X connect 19 0 14 1;
#X connect 20 0 7 0;
#X connect 21 0 9 0;
