#N canvas 164 253 1046 476 10;
#X msg 275 231 start;
#X obj 463 128 sel 0 1;
#X obj 487 180 timer;
#X obj 487 221 * 44.1;
#X obj 540 201 samplerate~;
#X obj 540 222 / 1000;
#X msg 293 254 stop;
#X obj 390 111 t f f;
#X obj 301 164 sel 1 0;
#X obj 229 125 inlet~;
#X obj 630 311 s \$1;
#X msg 630 198 resize 1.67772e+07;
#X msg 488 280 resize \$1;
#X obj 509 149 t b b b;
#X obj 229 291 tabwrite~ \$1;
#X obj 390 17 inlet;
#X obj 390 39 route start stop float;
#X obj 370 68 f 1;
#X obj 400 70 f 0;
#X obj 435 325 outlet;
#X connect 0 0 14 0;
#X connect 1 0 2 1;
#X connect 1 1 13 0;
#X connect 2 0 3 0;
#X connect 3 0 12 0;
#X connect 3 0 19 0;
#X connect 4 0 5 0;
#X connect 5 0 3 1;
#X connect 6 0 14 0;
#X connect 7 0 8 0;
#X connect 7 1 1 0;
#X connect 8 0 0 0;
#X connect 8 1 6 0;
#X connect 9 0 14 0;
#X connect 11 0 10 0;
#X connect 12 0 10 0;
#X connect 13 0 2 0;
#X connect 13 1 4 0;
#X connect 13 2 11 0;
#X connect 15 0 16 0;
#X connect 16 0 17 0;
#X connect 16 1 18 0;
#X connect 16 2 7 0;
#X connect 17 0 7 0;
#X connect 18 0 7 0;
