#N canvas 900 247 450 300 10;
#X obj 205 186 list;
#X obj 205 235 list trim;
#X obj 173 15 inlet;
#X obj 228 155 list split;
#X obj 205 208 list prepend 0;
#X obj 285 103 symbol \$1;
#X obj 288 133 expr size("$s1");
#X obj 285 38 loadbang;
#X obj 226 267 s;
#X obj 173 36 route set;
#X obj 233 63 t a b;
#X obj 173 72 t b a;
#X connect 0 0 3 0;
#X connect 0 0 4 0;
#X connect 1 0 8 0;
#X connect 2 0 9 0;
#X connect 3 0 0 1;
#X connect 3 2 0 1;
#X connect 4 0 1 0;
#X connect 5 0 6 0;
#X connect 5 0 8 1;
#X connect 6 0 3 1;
#X connect 7 0 5 0;
#X connect 9 0 11 0;
#X connect 9 1 10 0;
#X connect 10 0 0 0;
#X connect 10 1 5 0;
#X connect 11 0 0 1;
#X connect 11 1 5 0;
