#N canvas 470 86 602 521 10;
#N canvas 262 204 450 443 saw 0;
#X obj 103 8 inlet;
#X obj 130 90 until;
#X obj 130 136 f 1;
#X obj 162 137 + 1;
#X msg 145 114 1;
#X obj 130 62 t f b b;
#X obj 103 30 t b f;
#X obj 130 230 list prepend;
#X obj 103 260 list;
#X obj 103 307 list trim;
#X obj 103 329 t b a;
#X msg 103 350 normalize 1;
#X msg 129 162 1 \$1;
#X obj 129 184 /;
#X obj 218 240 t l;
#X obj 103 379 outlet;
#X obj 129 204 * -1;
#X obj 103 285 list prepend sinesum \$2;
#X connect 0 0 6 0;
#X connect 1 0 2 0;
#X connect 2 0 3 0;
#X connect 2 0 12 0;
#X connect 3 0 2 1;
#X connect 4 0 2 1;
#X connect 5 0 1 0;
#X connect 5 1 4 0;
#X connect 5 2 7 1;
#X connect 6 0 8 0;
#X connect 6 1 5 0;
#X connect 7 0 8 1;
#X connect 7 0 14 0;
#X connect 8 0 17 0;
#X connect 9 0 10 0;
#X connect 10 0 11 0;
#X connect 10 1 15 0;
#X connect 11 0 15 0;
#X connect 12 0 13 0;
#X connect 13 0 16 0;
#X connect 14 0 7 1;
#X connect 16 0 7 0;
#X connect 17 0 9 0;
#X restore 86 107 pd saw;
#N canvas 546 50 450 569 square 0;
#X obj 107 12 inlet;
#X obj 133 115 until;
#X obj 133 161 f 1;
#X obj 165 162 + 1;
#X obj 133 87 t f b b;
#X obj 106 55 t b f;
#X obj 133 349 list prepend;
#X obj 223 373 t l;
#X obj 107 388 list;
#X obj 107 438 list trim;
#X obj 107 460 t b a;
#X msg 107 484 normalize 1;
#X msg 133 265 1 \$1;
#X obj 133 287 /;
#X obj 164 216 mod 2;
#X obj 133 189 t f f;
#X obj 133 239 spigot;
#X obj 107 33 * 2;
#X obj 133 321 list 0;
#X obj 107 508 outlet;
#X msg 148 139 1;
#X obj 107 416 list prepend sinesum \$2;
#X connect 0 0 17 0;
#X connect 1 0 2 0;
#X connect 2 0 3 0;
#X connect 2 0 15 0;
#X connect 3 0 2 1;
#X connect 4 0 1 0;
#X connect 4 1 20 0;
#X connect 4 2 6 1;
#X connect 5 0 8 0;
#X connect 5 1 4 0;
#X connect 6 0 7 0;
#X connect 6 0 8 1;
#X connect 7 0 6 1;
#X connect 8 0 21 0;
#X connect 9 0 10 0;
#X connect 10 0 11 0;
#X connect 10 1 19 0;
#X connect 11 0 19 0;
#X connect 12 0 13 0;
#X connect 13 0 18 0;
#X connect 14 0 16 1;
#X connect 15 0 16 0;
#X connect 15 1 14 0;
#X connect 16 0 12 0;
#X connect 17 0 5 0;
#X connect 18 0 6 0;
#X connect 20 0 2 1;
#X connect 21 0 9 0;
#X restore 138 107 pd square;
#N canvas 546 50 450 638 triangle 0;
#X obj 127 123 until;
#X obj 127 169 f 1;
#X obj 159 170 + 1;
#X msg 142 147 1;
#X obj 127 95 t f b b;
#X obj 100 73 t b f;
#X obj 129 416 list prepend;
#X obj 213 437 t l;
#X obj 101 438 list;
#X obj 101 485 list trim;
#X obj 101 507 t b a;
#X msg 101 531 normalize 1;
#X msg 117 343 1 \$1;
#X obj 117 365 /;
#X obj 161 229 mod 2;
#X obj 128 251 spigot;
#X obj 100 36 * 2;
#X obj 129 391 list 0;
#X obj 128 272 pow 2;
#X obj 127 197 t f f f;
#X obj 210 230 mod 4;
#X obj 210 251 == 3;
#X obj 129 292 list prepend 0;
#X obj 129 313 route 0 1;
#X obj 154 364 /;
#X msg 154 342 -1 \$1;
#X obj 100 12 inlet;
#X obj 101 558 outlet;
#X obj 101 463 list prepend sinesum \$2;
#X connect 0 0 1 0;
#X connect 1 0 2 0;
#X connect 1 0 19 0;
#X connect 2 0 1 1;
#X connect 3 0 1 1;
#X connect 4 0 0 0;
#X connect 4 1 3 0;
#X connect 4 2 6 1;
#X connect 5 0 8 0;
#X connect 5 1 4 0;
#X connect 6 0 7 0;
#X connect 6 0 8 1;
#X connect 7 0 6 1;
#X connect 8 0 28 0;
#X connect 9 0 10 0;
#X connect 10 0 11 0;
#X connect 10 1 27 0;
#X connect 11 0 27 0;
#X connect 12 0 13 0;
#X connect 13 0 17 0;
#X connect 14 0 15 1;
#X connect 15 0 18 0;
#X connect 16 0 5 0;
#X connect 17 0 6 0;
#X connect 18 0 22 0;
#X connect 19 0 15 0;
#X connect 19 1 14 0;
#X connect 19 2 20 0;
#X connect 20 0 21 0;
#X connect 21 0 22 1;
#X connect 22 0 23 0;
#X connect 23 0 12 0;
#X connect 23 1 25 0;
#X connect 24 0 17 0;
#X connect 25 0 24 0;
#X connect 26 0 16 0;
#X connect 28 0 9 0;
#X restore 190 132 pd triangle;
#N canvas 262 204 450 443 resaw 0;
#X obj 103 8 inlet;
#X obj 130 90 until;
#X obj 130 136 f 1;
#X obj 162 137 + 1;
#X msg 145 114 1;
#X obj 130 62 t f b b;
#X obj 103 30 t b f;
#X obj 130 230 list prepend;
#X obj 103 260 list;
#X obj 103 307 list trim;
#X obj 103 329 t b a;
#X msg 103 350 normalize 1;
#X msg 130 163 1 \$1;
#X obj 130 185 /;
#X obj 213 244 t l;
#X obj 103 379 outlet;
#X obj 103 285 list prepend sinesum \$2;
#X connect 0 0 6 0;
#X connect 1 0 2 0;
#X connect 2 0 3 0;
#X connect 2 0 12 0;
#X connect 3 0 2 1;
#X connect 4 0 2 1;
#X connect 5 0 1 0;
#X connect 5 1 4 0;
#X connect 5 2 7 1;
#X connect 6 0 8 0;
#X connect 6 1 5 0;
#X connect 7 0 8 1;
#X connect 7 0 14 0;
#X connect 8 0 16 0;
#X connect 9 0 10 0;
#X connect 10 0 11 0;
#X connect 10 1 15 0;
#X connect 11 0 15 0;
#X connect 12 0 13 0;
#X connect 13 0 7 0;
#X connect 14 0 7 1;
#X connect 16 0 9 0;
#X restore 293 181 pd resaw;
#N canvas 426 252 450 443 pulse 0;
#X obj 103 8 inlet;
#X obj 130 90 until;
#X obj 130 136 f 1;
#X obj 162 137 + 1;
#X msg 145 114 1;
#X obj 103 30 t b f;
#X obj 130 230 list prepend;
#X obj 103 260 list;
#X obj 103 307 list trim;
#X obj 103 329 t b a;
#X msg 103 350 normalize 1;
#X obj 213 244 t l;
#X obj 103 379 outlet;
#X obj 130 62 t f b b f;
#X obj 130 190 /;
#X obj 102 286 list prepend sinesum \$2;
#X connect 0 0 5 0;
#X connect 1 0 2 0;
#X connect 2 0 3 0;
#X connect 2 0 14 0;
#X connect 3 0 2 1;
#X connect 4 0 2 1;
#X connect 5 0 7 0;
#X connect 5 1 13 0;
#X connect 6 0 7 1;
#X connect 6 0 11 0;
#X connect 7 0 15 0;
#X connect 8 0 9 0;
#X connect 9 0 10 0;
#X connect 9 1 12 0;
#X connect 10 0 12 0;
#X connect 11 0 6 1;
#X connect 13 0 1 0;
#X connect 13 1 4 0;
#X connect 13 2 6 1;
#X connect 13 3 14 1;
#X connect 14 0 6 0;
#X connect 15 0 8 0;
#X restore 242 155 pd pulse;
#X obj 86 46 inlet;
#X obj 86 68 route saw square triangle pulse resaw square2;
#N canvas 546 50 450 638 square2 0;
#X obj 100 12 inlet;
#X obj 100 504 outlet;
#X obj 127 122 until;
#X obj 127 198 f 1;
#X obj 159 199 + 1;
#X msg 142 176 1;
#X obj 100 62 t b f;
#X obj 127 356 list prepend;
#X obj 200 380 t l;
#X obj 100 386 list;
#X obj 100 433 list trim;
#X obj 100 455 t b a;
#X msg 100 479 normalize 1;
#X msg 127 285 1 \$1;
#X obj 127 307 /;
#X obj 127 265 spigot;
#X obj 203 162 f 1;
#X obj 235 163 + 1;
#X obj 127 145 t b b;
#X obj 127 94 t f b b b;
#X obj 203 241 t f f;
#X obj 196 269 sel 0;
#X msg 196 289 0;
#X obj 203 198 mod 4;
#X obj 100 38 * 4;
#X msg 218 142 0;
#X obj 203 219 == 0;
#X obj 100 410 list prepend sinesum \$2;
#X connect 0 0 24 0;
#X connect 2 0 18 0;
#X connect 3 0 4 0;
#X connect 3 0 15 0;
#X connect 4 0 3 1;
#X connect 5 0 3 1;
#X connect 6 0 9 0;
#X connect 6 1 19 0;
#X connect 7 0 8 0;
#X connect 7 0 9 1;
#X connect 8 0 7 1;
#X connect 9 0 27 0;
#X connect 10 0 11 0;
#X connect 11 0 12 0;
#X connect 11 1 1 0;
#X connect 12 0 1 0;
#X connect 13 0 14 0;
#X connect 14 0 7 0;
#X connect 15 0 13 0;
#X connect 16 0 17 0;
#X connect 16 0 23 0;
#X connect 17 0 16 1;
#X connect 18 0 3 0;
#X connect 18 1 16 0;
#X connect 19 0 2 0;
#X connect 19 1 5 0;
#X connect 19 2 7 1;
#X connect 19 3 25 0;
#X connect 20 0 15 1;
#X connect 20 1 21 0;
#X connect 21 0 22 0;
#X connect 22 0 7 0;
#X connect 23 0 26 0;
#X connect 24 0 6 0;
#X connect 25 0 16 1;
#X connect 26 0 20 0;
#X connect 27 0 10 0;
#X restore 346 210 pd square2;
#X obj 86 227 s \$1;
#X connect 0 0 8 0;
#X connect 1 0 8 0;
#X connect 2 0 8 0;
#X connect 3 0 8 0;
#X connect 4 0 8 0;
#X connect 5 0 6 0;
#X connect 6 0 0 0;
#X connect 6 1 1 0;
#X connect 6 2 2 0;
#X connect 6 3 4 0;
#X connect 6 4 3 0;
#X connect 6 5 7 0;
#X connect 7 0 8 0;
